<svg width="64" height="64" viewBox="0 0 64 64" fill="none" xmlns="http://www.w3.org/2000/svg">
<path d="M11.3471 59.3379L45.7242 43.3987L21.1605 18.835L5.22144 53.1968C4.99285 53.7454 4.12429 55.955 6.48619 58.0579C9.04619 60.3283 10.7986 59.5665 11.3471 59.3379Z" fill="url(#paint0_linear_1588_16431)"/>
<path d="M17.7164 26.2549L15.1564 31.8167C14.3335 33.813 28.9317 48.5482 37.1755 47.3597L45.724 43.3978C35.5907 48.0759 16.4669 28.9671 17.7164 26.2549Z" fill="url(#paint1_linear_1588_16431)"/>
<path d="M12.5354 37.4697L11.9411 38.7345L9.92971 43.062C9.91448 44.7687 18.7069 53.5457 24.2078 53.3631L31.1869 50.1324C23.6287 51.4431 11.6669 39.3135 12.5354 37.4697Z" fill="url(#paint2_linear_1588_16431)"/>
<path d="M5.38867 52.8615C6.12011 54.3245 9.70107 57.8901 12.6725 58.7282L20.0477 55.3149L20.0934 55.2845C15.5525 57.3719 7.87248 49.6311 7.73534 47.833L5.38867 52.8615Z" fill="url(#paint3_linear_1588_16431)"/>
<path opacity="0.75" d="M11.3471 59.3379L45.7242 43.3987L21.1605 18.835L5.22144 53.1968C4.99285 53.7454 4.12429 55.955 6.48619 58.0579C9.04619 60.3283 10.7986 59.5665 11.3471 59.3379Z" fill="url(#paint4_radial_1588_16431)"/>
<path opacity="0.75" d="M11.3471 59.3379L45.7242 43.3987L21.1605 18.835L5.22144 53.1968C4.99285 53.7454 4.12429 55.955 6.48619 58.0579C9.04619 60.3283 10.7986 59.5665 11.3471 59.3379Z" fill="url(#paint5_radial_1588_16431)"/>
<path d="M32.909 18.9557C32.4976 19.7938 31.6898 19.9157 31.0957 19.7328L32.0709 17.7976C32.0709 17.7976 33.168 18.0414 33.1986 17.3252L33.2442 18.3309L32.909 18.9557Z" fill="url(#paint6_linear_1588_16431)"/>
<path d="M35.6367 8.2894C35.6367 8.2894 36.3375 7.96943 36.7794 7.05513C37.2215 6.14084 35.0423 4.41895 35.0423 4.41895L34.0215 6.2018C34.0215 6.2018 35.7434 7.3294 35.21 7.71036C34.6615 8.09132 35.6367 8.2894 35.6367 8.2894Z" fill="url(#paint7_linear_1588_16431)"/>
<path d="M53.4651 22.9488C53.7851 20.145 51.8955 19.2154 51.2099 19.2916C51.2099 19.2916 51.0878 18.3774 52.307 18.0878C53.1145 17.905 55.1718 19.7335 54.6385 21.8059L53.4651 22.9488Z" fill="url(#paint8_linear_1588_16431)"/>
<path d="M46.0138 43.185C44.3071 44.8917 37.4194 40.7469 30.6079 33.9509C23.8117 27.1546 19.667 20.2517 21.3737 18.545C23.0803 16.8384 29.9679 20.9831 36.7794 27.7794C43.5756 34.5909 47.705 41.4783 46.0138 43.185Z" fill="url(#paint9_linear_1588_16431)"/>
<path d="M45.4345 42.0567C44.1393 43.3519 37.9526 39.2682 31.6289 32.9293C25.3051 26.5901 21.206 20.4187 22.5013 19.1235C23.7965 17.8282 29.983 21.912 36.307 28.2511C42.6308 34.5901 46.7297 40.7615 45.4345 42.0567Z" fill="url(#paint10_linear_1588_16431)"/>
<path d="M36.7644 7.05566C36.7644 7.05566 35.9721 8.74708 35.8655 8.92993C35.4692 9.60041 34.3567 9.829 32.3607 9.5547C30.3644 9.28041 29.7855 9.38708 29.694 9.40233C29.6025 9.43281 28.4292 8.48804 28.4292 8.48804L28.5359 7.52804C28.5359 7.52804 28.81 7.16233 29.7244 7.28422C31.3548 7.52804 36.1548 8.33566 36.7644 7.05566Z" fill="url(#paint11_linear_1588_16431)"/>
<path d="M40.7259 35.3523C42.3259 33.5237 43.8192 34.9563 44.7638 33.6456L43.1486 32C42.2038 33.2952 40.8326 32.0763 39.1411 33.8589L40.7259 35.3523Z" fill="url(#paint12_linear_1588_16431)"/>
<path d="M23.3696 13.1658C25.5791 14.4763 23.6134 16.2744 24.863 17.2953L26.5849 15.7563C25.3354 14.7353 27.1334 12.9677 24.9239 11.6572L23.3696 13.1658Z" fill="url(#paint13_linear_1588_16431)"/>
<path d="M46.7605 19.9461C46.8216 19.9308 46.852 19.5651 47.7509 18.9251C48.6501 18.2851 50.6768 19.2756 50.9357 19.4279C51.2101 19.5803 50.9816 22.0946 50.9816 22.0946C50.9816 22.0946 48.452 19.3975 47.1872 20.0222C45.9224 20.6318 46.7605 19.9461 46.7605 19.9461Z" fill="url(#paint14_linear_1588_16431)"/>
<path d="M47.0954 26.2101C47.0954 26.2101 47.0039 27.2006 46.5468 27.6577C45.7239 28.4654 44.4135 27.2462 42.7524 27.6881C42.7524 27.6881 43.5143 25.7529 43.5906 25.6005C43.5906 25.6005 44.261 25.1891 44.9468 25.5853C45.6476 25.9662 46.2572 26.0882 46.6839 25.8596C47.1106 25.631 47.0954 26.2101 47.0954 26.2101Z" fill="url(#paint15_linear_1588_16431)"/>
<path d="M51.5599 21.8514C51.5599 21.8514 49.9292 22.5981 49.7159 22.7047C49.5025 22.8114 49.0151 19.0171 50.1884 18.6362C51.3769 18.2552 52.1847 18.1181 52.3065 18.1028C52.4284 18.0724 50.2647 18.3009 51.5599 21.8514Z" fill="#FFBF00"/>
<path d="M46.5467 27.6416C47.2174 26.9405 48.1315 25.9044 48.0859 25.6149C47.8726 23.7559 46.3641 19.6568 47.7507 18.9102C47.7507 18.9102 46.4553 19.8245 46.0593 20.0987C45.663 20.373 45.3734 21.1044 45.4041 22.3082C45.4801 24.4111 47.1563 27.0168 46.5467 27.6416Z" fill="#FFBF00"/>
<path d="M41.9144 12.6016C40.8022 20.4187 33.0459 27.8853 33.0459 27.8853L34.0974 29.4853C34.0974 29.4853 42.5392 20.693 43.6211 12.8453L41.9144 12.6016Z" fill="url(#paint16_linear_1588_16431)"/>
<path d="M27.6058 9.34108C27.4228 9.6763 27.9562 10.2401 29.2362 11.7944C30.5162 13.3487 33.8383 17.463 32.8935 18.9563L33.9143 16.8534C33.9143 16.8534 33.9295 15.1773 32.9239 13.5468C31.3391 10.9868 28.3068 8.2287 28.5354 7.54297L27.6058 9.34108Z" fill="url(#paint17_linear_1588_16431)"/>
<path d="M34.4021 33.1275C34.7472 33.1275 35.0269 32.8478 35.0269 32.5027C35.0269 32.1577 34.7472 31.8779 34.4021 31.8779C34.0571 31.8779 33.7773 32.1577 33.7773 32.5027C33.7773 32.8478 34.0571 33.1275 34.4021 33.1275Z" fill="url(#paint18_linear_1588_16431)"/>
<path d="M43.1033 7.16261C43.4484 7.16261 43.7281 6.88287 43.7281 6.53783C43.7281 6.19279 43.4484 5.91309 43.1033 5.91309C42.7582 5.91309 42.4785 6.19279 42.4785 6.53783C42.4785 6.88287 42.7582 7.16261 43.1033 7.16261Z" fill="url(#paint19_linear_1588_16431)"/>
<path d="M37.2361 16.229C37.5812 16.229 37.8609 15.9493 37.8609 15.6042C37.8609 15.2592 37.5812 14.9795 37.2361 14.9795C36.8911 14.9795 36.6113 15.2592 36.6113 15.6042C36.6113 15.9493 36.8911 16.229 37.2361 16.229Z" fill="url(#paint20_linear_1588_16431)"/>
<path d="M40.9393 27.6725C41.2843 27.6725 41.5641 27.3927 41.5641 27.0477C41.5641 26.7026 41.2843 26.4229 40.9393 26.4229C40.5942 26.4229 40.3145 26.7026 40.3145 27.0477C40.3145 27.3927 40.5942 27.6725 40.9393 27.6725Z" fill="url(#paint21_linear_1588_16431)"/>
<path d="M57.0008 26.1489C57.3456 26.1489 57.6253 25.8692 57.6253 25.5242C57.6253 25.1791 57.3456 24.8994 57.0008 24.8994C56.6557 24.8994 56.376 25.1791 56.376 25.5242C56.376 25.8692 56.6557 26.1489 57.0008 26.1489Z" fill="url(#paint22_linear_1588_16431)"/>
<path d="M53.0232 39.3307C53.3683 39.3307 53.648 39.0509 53.648 38.7059C53.648 38.3608 53.3683 38.0811 53.0232 38.0811C52.6782 38.0811 52.3984 38.3608 52.3984 38.7059C52.3984 39.0509 52.6782 39.3307 53.0232 39.3307Z" fill="url(#paint23_linear_1588_16431)"/>
<path d="M50.4175 31.2838C50.7626 31.2838 51.0423 31.004 51.0423 30.659C51.0423 30.3139 50.7626 30.0342 50.4175 30.0342C50.0727 30.0342 49.793 30.3139 49.793 30.659C49.793 31.004 50.0727 31.2838 50.4175 31.2838Z" fill="url(#paint24_linear_1588_16431)"/>
<path d="M53.846 14.3091C54.1911 14.3091 54.4708 14.0294 54.4708 13.6843C54.4708 13.3393 54.1911 13.0596 53.846 13.0596C53.5009 13.0596 53.2212 13.3393 53.2212 13.6843C53.2212 14.0294 53.5009 14.3091 53.846 14.3091Z" fill="url(#paint25_linear_1588_16431)"/>
<path d="M46.8362 16.3511C47.1813 16.3511 47.461 16.0713 47.461 15.7263C47.461 15.3813 47.1813 15.1016 46.8362 15.1016C46.4912 15.1016 46.2114 15.3813 46.2114 15.7263C46.2114 16.0713 46.4912 16.3511 46.8362 16.3511Z" fill="url(#paint26_linear_1588_16431)"/>
<path d="M41.4876 41.0366C47.8569 35.8099 58.6455 34.728 58.6455 34.728L58.9961 32.3203C58.9961 32.3203 46.2265 33.844 39.4609 39.7107C40.1921 40.2136 40.8628 40.6555 41.4876 41.0366Z" fill="url(#paint27_linear_1588_16431)"/>
<path d="M25.5034 25.9808C25.9301 26.5599 26.4025 27.1389 26.9052 27.7485C28.2615 24.7618 27.9719 22.4151 27.9719 22.4151L26.311 21.3789C26.4786 23.2227 25.9149 24.9903 25.5034 25.9808Z" fill="url(#paint28_linear_1588_16431)"/>
<defs>
<linearGradient id="paint0_linear_1588_16431" x1="3.20411" y1="23.6354" x2="30.4004" y2="55.8646" gradientUnits="userSpaceOnUse">
<stop offset="0.2544" stop-color="#FBE07A"/>
<stop offset="1" stop-color="#FF40BF"/>
</linearGradient>
<linearGradient id="paint1_linear_1588_16431" x1="17.9841" y1="25.9931" x2="40.5533" y2="48.5623" gradientUnits="userSpaceOnUse">
<stop offset="0.2544" stop-color="#9F00E8"/>
<stop offset="1" stop-color="#7000A3"/>
</linearGradient>
<linearGradient id="paint2_linear_1588_16431" x1="11.7284" y1="38.2796" x2="27.3811" y2="53.9321" gradientUnits="userSpaceOnUse">
<stop offset="0.2544" stop-color="#9F00E8"/>
<stop offset="1" stop-color="#7000A3"/>
</linearGradient>
<linearGradient id="paint3_linear_1588_16431" x1="6.99675" y1="48.5506" x2="16.9026" y2="58.4565" gradientUnits="userSpaceOnUse">
<stop offset="0.2544" stop-color="#9F00E8"/>
<stop offset="1" stop-color="#7000A3"/>
</linearGradient>
<radialGradient id="paint4_radial_1588_16431" cx="0" cy="0" r="1" gradientUnits="userSpaceOnUse" gradientTransform="translate(17.9407 34.4195) rotate(119.598) scale(15.6128 4.77984)">
<stop stop-color="white" stop-opacity="0.5"/>
<stop offset="1" stop-color="white" stop-opacity="0"/>
</radialGradient>
<radialGradient id="paint5_radial_1588_16431" cx="0" cy="0" r="1" gradientUnits="userSpaceOnUse" gradientTransform="translate(28.9122 48.4153) rotate(151.7) scale(24.7493 7.71901)">
<stop stop-color="#440063" stop-opacity="0.75"/>
<stop offset="1" stop-color="#420061" stop-opacity="0"/>
</radialGradient>
<linearGradient id="paint6_linear_1588_16431" x1="33.0245" y1="18.3865" x2="36.7648" y2="17.1919" gradientUnits="userSpaceOnUse">
<stop stop-color="#BD2719"/>
<stop offset="1" stop-color="#FF4E0D"/>
</linearGradient>
<linearGradient id="paint7_linear_1588_16431" x1="36.502" y1="9.10617" x2="34.8274" y2="4.94564" gradientUnits="userSpaceOnUse">
<stop stop-color="#BD2719"/>
<stop offset="1" stop-color="#FF4E0D"/>
</linearGradient>
<linearGradient id="paint8_linear_1588_16431" x1="55.1281" y1="21.8134" x2="48.8905" y2="17.8165" gradientUnits="userSpaceOnUse">
<stop stop-color="#FFCB4B"/>
<stop offset="1" stop-color="#E81CA2"/>
</linearGradient>
<linearGradient id="paint9_linear_1588_16431" x1="39.1463" y1="13.6621" x2="25.2094" y2="57.6021" gradientUnits="userSpaceOnUse">
<stop offset="0.2544" stop-color="#FBE07A"/>
<stop offset="1" stop-color="#E81CA2"/>
</linearGradient>
<linearGradient id="paint10_linear_1588_16431" x1="43.722" y1="23.7479" x2="22.3326" y2="38.7495" gradientUnits="userSpaceOnUse">
<stop stop-color="#FBE07A"/>
<stop offset="1" stop-color="white"/>
</linearGradient>
<linearGradient id="paint11_linear_1588_16431" x1="26.5053" y1="8.50166" x2="33.4135" y2="8.397" gradientUnits="userSpaceOnUse">
<stop stop-color="#BD2719"/>
<stop offset="1" stop-color="#FF4E0D"/>
</linearGradient>
<linearGradient id="paint12_linear_1588_16431" x1="42.7664" y1="32.324" x2="41.1051" y2="35.3048" gradientUnits="userSpaceOnUse">
<stop stop-color="#FF9214"/>
<stop offset="1" stop-color="#FF4E0D"/>
</linearGradient>
<linearGradient id="paint13_linear_1588_16431" x1="23.3598" y1="9.41147" x2="25.8718" y2="16.5986" gradientUnits="userSpaceOnUse">
<stop stop-color="#80DAFE"/>
<stop offset="1" stop-color="#008EE6"/>
</linearGradient>
<linearGradient id="paint14_linear_1588_16431" x1="49.0309" y1="23.3769" x2="48.4557" y2="16.1269" gradientUnits="userSpaceOnUse">
<stop stop-color="#FFCB4B"/>
<stop offset="1" stop-color="#E81CA2"/>
</linearGradient>
<linearGradient id="paint15_linear_1588_16431" x1="42.9415" y1="26.4338" x2="46.9474" y2="27.0827" gradientUnits="userSpaceOnUse">
<stop stop-color="#FFCB4B"/>
<stop offset="1" stop-color="#E81CA2"/>
</linearGradient>
<linearGradient id="paint16_linear_1588_16431" x1="40.1886" y1="12.8828" x2="34.2459" y2="37.3387" gradientUnits="userSpaceOnUse">
<stop offset="0.2544" stop-color="#E100FF"/>
<stop offset="1" stop-color="#7000A3"/>
</linearGradient>
<linearGradient id="paint17_linear_1588_16431" x1="28.5004" y1="8.87601" x2="32.8964" y2="16.2027" gradientUnits="userSpaceOnUse">
<stop stop-color="#FF9214"/>
<stop offset="1" stop-color="#FF4E0D"/>
</linearGradient>
<linearGradient id="paint18_linear_1588_16431" x1="33.2072" y1="28.9862" x2="35.5795" y2="35.9641" gradientUnits="userSpaceOnUse">
<stop stop-color="#FFCB4B"/>
<stop offset="1" stop-color="#E81CA2"/>
</linearGradient>
<linearGradient id="paint19_linear_1588_16431" x1="41.1974" y1="3.41314" x2="45.1049" y2="9.83274" gradientUnits="userSpaceOnUse">
<stop stop-color="#FBE07A"/>
<stop offset="1" stop-color="#E81CA2"/>
</linearGradient>
<linearGradient id="paint20_linear_1588_16431" x1="37.1431" y1="15.2585" x2="38.1199" y2="18.9567" gradientUnits="userSpaceOnUse">
<stop stop-color="#80DAFE"/>
<stop offset="1" stop-color="#008EE6"/>
</linearGradient>
<linearGradient id="paint21_linear_1588_16431" x1="40.5182" y1="25.8612" x2="41.1145" y2="27.5671" gradientUnits="userSpaceOnUse">
<stop stop-color="#80DAFE"/>
<stop offset="1" stop-color="#008EE6"/>
</linearGradient>
<linearGradient id="paint22_linear_1588_16431" x1="57.4538" y1="24.0657" x2="56.3373" y2="27.6245" gradientUnits="userSpaceOnUse">
<stop stop-color="#FFCB4B"/>
<stop offset="1" stop-color="#E81CA2"/>
</linearGradient>
<linearGradient id="paint23_linear_1588_16431" x1="52.8392" y1="34.7139" x2="53.188" y2="42.3197" gradientUnits="userSpaceOnUse">
<stop stop-color="#FFCB4B"/>
<stop offset="1" stop-color="#E81CA2"/>
</linearGradient>
<linearGradient id="paint24_linear_1588_16431" x1="50.0084" y1="29.4782" x2="50.6044" y2="31.184" gradientUnits="userSpaceOnUse">
<stop offset="0.2544" stop-color="#9F00E8"/>
<stop offset="1" stop-color="#7000A3"/>
</linearGradient>
<linearGradient id="paint25_linear_1588_16431" x1="55.0588" y1="11.6024" x2="52.7561" y2="15.5797" gradientUnits="userSpaceOnUse">
<stop stop-color="#80DAFE"/>
<stop offset="1" stop-color="#008EE6"/>
</linearGradient>
<linearGradient id="paint26_linear_1588_16431" x1="46.6752" y1="14.8398" x2="47.4426" y2="19.0963" gradientUnits="userSpaceOnUse">
<stop stop-color="#FF9214"/>
<stop offset="1" stop-color="#FF4E0D"/>
</linearGradient>
<linearGradient id="paint27_linear_1588_16431" x1="35.1425" y1="36.3627" x2="57.39" y2="36.8198" gradientUnits="userSpaceOnUse">
<stop stop-color="#80DAFE"/>
<stop offset="1" stop-color="#008EE6"/>
</linearGradient>
<linearGradient id="paint28_linear_1588_16431" x1="22.853" y1="33.8877" x2="28.1863" y2="20.6306" gradientUnits="userSpaceOnUse">
<stop stop-color="#FBE07A"/>
<stop offset="1" stop-color="#E81CA2"/>
</linearGradient>
</defs>
</svg>
