<svg width="186" height="40" viewBox="0 0 186 40" fill="none" xmlns="http://www.w3.org/2000/svg">
<path d="M15.1277 28.8792C15.1277 24.4482 12.3518 20.4827 8.17943 18.9827C3.67945 17.362 0.679443 13.0862 0.679443 8.29307V2.25861C8.67942 2.25861 15.1449 8.74137 15.1449 16.7241L15.1277 28.8792Z" fill="#0074BC"/>
<path d="M29.87 9.93108H38.5941C38.6631 9.93108 38.6803 9.82762 38.5941 9.81038L29.7148 8.60352L29.87 9.93108Z" fill="#0074BC"/>
<path d="M29.7668 9.84551C24.8358 8.82827 19.7151 10.4662 16.284 14.1558L15.1289 15.3972V23.673V30.7937C15.1289 30.7937 15.1289 30.7937 15.1461 30.7937V40.0006C17.8358 40.0006 19.5771 37.1558 18.3358 34.7765L17.1806 32.5351C16.2668 30.742 16.7495 28.5523 18.3185 27.2765C22.1461 24.1903 24.8185 20.4144 25.4737 16.6213C26.4047 11.2248 30.1461 9.93169 30.1461 9.93169L29.7668 9.84551Z" fill="url(#paint0_linear_1_1890)"/>
<path d="M15.1289 24.9657V13.0346C15.1289 10.1209 16.5082 7.86228 18.6634 6.50021C21.7323 4.55194 25.7151 4.84502 28.5427 7.12088C29.4737 7.86225 30.1633 8.79329 30.1633 9.93122C21.853 9.93122 15.1289 16.6553 15.1289 24.9657Z" fill="url(#paint1_linear_1_1890)"/>
<path d="M15.1279 23.6724C15.1279 19.2413 12.3521 15.2759 8.17968 13.7759C3.67969 12.1552 0.679688 7.8793 0.679688 3.08621V0C8.67966 0 15.1451 6.48276 15.1451 14.4655L15.1279 23.6724Z" fill="url(#paint2_linear_1_1890)"/>
<path d="M15.1291 29.293L12.8359 39.9998H15.1291V29.293Z" fill="#0074BC"/>
<path d="M118.316 38.0181V21.5871C118.316 20.6561 119.075 19.8975 120.006 19.8975C120.937 19.8975 121.696 20.6561 121.696 21.5871V38.0181C121.696 38.9491 120.937 39.7077 120.006 39.7077C119.075 39.6905 118.316 38.9491 118.316 38.0181Z" fill="white"/>
<path d="M30.558 38.4654V23.069H27.7649C26.9201 23.069 26.2305 22.3793 26.2305 21.5345C26.2305 20.6897 26.9201 20 27.7649 20H36.6442C37.489 20 38.1787 20.6897 38.1787 21.5345C38.1787 22.3793 37.489 23.069 36.6442 23.069H33.8856V38.4654C33.8856 39.3103 33.1959 39.9999 32.3511 39.9999H32.0925C31.2477 39.9999 30.558 39.3103 30.558 38.4654Z" fill="white"/>
<path d="M58.3516 40.0005V19.9833H66.6792C67.524 19.9833 68.1964 20.6729 68.1964 21.5005C68.1964 22.3453 67.5067 23.0178 66.6792 23.0178H61.7998V28.0867H66.1102C66.955 28.0867 67.6274 28.7764 67.6274 29.604V29.6384C67.6274 30.4833 66.9377 31.1557 66.1102 31.1557H61.7998V36.6729H66.9205C67.7653 36.6729 68.4378 37.3626 68.4378 38.1902V38.4488C68.4378 39.2936 67.7481 39.966 66.9205 39.966H58.3516V40.0005Z" fill="white"/>
<path d="M92.1602 40.0005V19.9833H100.488C101.333 19.9833 102.005 20.6729 102.005 21.5005C102.005 22.3453 101.315 23.0178 100.488 23.0178H95.6084V28.0867H99.9188C100.764 28.0867 101.436 28.7764 101.436 29.604V29.6384C101.436 30.4833 100.746 31.1557 99.9188 31.1557H95.6084V36.6729H100.729C101.574 36.6729 102.246 37.3626 102.246 38.1902V38.4488C102.246 39.2936 101.557 39.966 100.729 39.966H92.1602V40.0005Z" fill="white"/>
<path d="M105.387 37.9836V19.9492H113.611C114.438 19.9492 115.111 20.6216 115.111 21.4492C115.111 22.2768 114.438 22.9492 113.611 22.9492H108.835V28.1044H112.801C113.628 28.1044 114.301 28.7768 114.301 29.6044V29.6388C114.301 30.4664 113.628 31.1388 112.801 31.1388H108.835V37.9664C108.835 38.9147 108.059 39.6906 107.111 39.6906C106.145 39.6906 105.387 38.9319 105.387 37.9836Z" fill="white"/>
<path d="M131.59 40.0004C129.435 40.0004 127.677 39.3625 126.487 38.1384C126.194 37.828 125.935 37.5004 125.728 37.1384C125.125 36.0866 125.901 34.7763 127.108 34.7763H127.228C127.78 34.7763 128.297 35.0694 128.591 35.5349C128.711 35.7246 128.832 35.8798 128.987 36.0349C129.608 36.6729 130.522 37.0176 131.539 37.0176C133.539 37.0176 134.884 35.8452 134.884 34.1039C134.884 31.5004 132.125 31.2591 131.073 31.1729H131.004C129.228 31.0349 125.125 30.2418 125.125 25.5349C125.125 21.8798 127.539 19.6212 131.418 19.6212C133.349 19.6212 134.953 20.2246 136.056 21.3453C136.366 21.6729 136.642 22.0349 136.849 22.4315C137.435 23.4832 136.677 24.7936 135.453 24.7936C134.884 24.7936 134.349 24.4832 134.073 23.9832C133.97 23.7936 133.849 23.6384 133.694 23.4832C133.142 22.897 132.366 22.5694 131.504 22.5694C129.694 22.5694 128.47 23.7418 128.47 25.5005C128.47 26.397 128.884 27.9487 131.677 28.3108C135.746 28.7246 138.246 29.8453 138.246 34.1728C138.246 37.7763 135.694 40.0004 131.59 40.0004Z" fill="white"/>
<path d="M151.937 37.9836V31.4319H145.144V37.9836C145.144 38.9319 144.368 39.7078 143.419 39.7078C142.471 39.7078 141.695 38.9319 141.695 37.9836V21.6734C141.695 20.7251 142.471 19.9492 143.419 19.9492C144.368 19.9492 145.144 20.7251 145.144 21.6734V28.1733H151.937V21.6734C151.937 20.7251 152.712 19.9492 153.661 19.9492C154.609 19.9492 155.385 20.7251 155.385 21.6734V37.9836C155.385 38.9319 154.609 39.7078 153.661 39.7078C152.712 39.6905 151.937 38.9319 151.937 37.9836Z" fill="white"/>
<path d="M51.007 37.9836V31.4319H44.2139V37.9836C44.2139 38.9319 43.438 39.7078 42.4898 39.7078C41.5415 39.7078 40.7656 38.9319 40.7656 37.9836V21.6734C40.7656 20.7251 41.5415 19.9492 42.4898 19.9492C43.438 19.9492 44.2139 20.7251 44.2139 21.6734V28.1733H51.007V21.6734C51.007 20.7251 51.7828 19.9492 52.7311 19.9492C53.6794 19.9492 54.4552 20.7251 54.4552 21.6734V37.9836C54.4552 38.9319 53.6794 39.7078 52.7311 39.7078C51.7828 39.6905 51.007 38.9319 51.007 37.9836Z" fill="white"/>
<path d="M159.316 39.6902V19.9316H167.54C168.368 19.9316 169.04 20.604 169.04 21.4316C169.04 22.2592 168.368 22.9316 167.54 22.9316H162.73V27.9316H166.989C167.816 27.9316 168.489 28.604 168.489 29.4316V29.466C168.489 30.2936 167.816 30.9661 166.989 30.9661H162.73V36.3971H167.782C168.609 36.3971 169.282 37.0695 169.282 37.8971V38.1385C169.282 38.9661 168.609 39.6385 167.782 39.6385H159.316V39.6902Z" fill="white"/>
<path d="M181.695 38.604L179.35 32.8798H175.712V37.9488C175.712 38.8971 174.954 39.6557 174.005 39.6557H173.988C173.04 39.6557 172.281 38.8971 172.281 37.9488V19.9316H178.971C182.833 19.9316 185.316 22.5523 185.316 26.6212C185.281 29.0523 184.626 30.5695 183.109 31.7074L182.488 32.1729L184.85 37.2246C185.385 38.3626 184.557 39.6557 183.298 39.6557C182.592 39.6729 181.954 39.2419 181.695 38.604ZM175.609 30.1902H178.919C180.764 30.1902 182.04 28.6729 182.04 26.5178C182.04 24.4143 180.764 22.9316 178.919 22.9316H175.609V30.1902Z" fill="white"/>
<path d="M84.6276 38.259V28.1728L80.6793 35.897C80.3172 36.6038 79.3172 36.6038 78.9551 35.897L75.0414 28.1556V38.259C75.0414 39.2245 74.2655 40.0004 73.3 40.0004C72.3345 40.0004 71.5586 39.2245 71.5586 38.259V21.7418C71.5586 20.1039 73.6103 19.3625 74.6448 20.6384L79.5586 30.6556C79.6793 30.8969 80.0068 30.8969 80.1275 30.6556L85.0413 20.6384C86.0758 19.3625 88.1275 20.1039 88.1275 21.7418V38.259C88.1275 39.2245 87.3517 40.0004 86.3861 40.0004C85.4206 40.0004 84.6276 39.2245 84.6276 38.259Z" fill="white"/>
<defs>
<linearGradient id="paint0_linear_1_1890" x1="24.7409" y1="10.7072" x2="13.027" y2="34.1352" gradientUnits="userSpaceOnUse">
<stop stop-color="#FFDD00"/>
<stop offset="1" stop-color="#EF4056"/>
</linearGradient>
<linearGradient id="paint1_linear_1_1890" x1="30.6611" y1="15.0907" x2="-0.993117" y2="15.0907" gradientUnits="userSpaceOnUse">
<stop stop-color="#5BC4BF"/>
<stop offset="1" stop-color="#2A5CAA"/>
</linearGradient>
<linearGradient id="paint2_linear_1_1890" x1="0.663653" y1="11.8419" x2="24.4991" y2="11.8419" gradientUnits="userSpaceOnUse">
<stop stop-color="#5BC4BF"/>
<stop offset="1" stop-color="#2A5CAA"/>
</linearGradient>
</defs>
</svg>
