<svg width="186" height="42" viewBox="0 0 186 42" fill="none" xmlns="http://www.w3.org/2000/svg">
<path fill-rule="evenodd" clip-rule="evenodd" d="M0.790006 1.05023C0.680335 1.25493 0.647106 2.97164 0.686146 6.4391C0.739492 11.1748 0.766463 11.6047 1.07521 12.6386C2.03766 15.8599 4.27832 18.5557 7.12456 19.9165C7.7802 20.23 8.81954 20.7244 9.43421 21.0155C11.5901 22.036 13.3792 24.1311 14.1361 26.5214C14.5144 27.7163 14.5192 27.7923 14.604 34.048C14.6554 37.8503 14.7482 40.4415 14.8369 40.5532C15.1137 40.9027 16.3275 40.7703 17.3025 40.2842C18.8425 39.5165 19.6163 38.2551 19.6225 36.5023C19.6257 35.5776 19.5567 35.3209 19.0033 34.1981C18.2279 32.6245 18.0312 31.674 18.2438 30.5267C18.4886 29.2056 18.8732 28.6247 20.6779 26.8502C23.8636 23.718 25.5183 20.9245 26.1884 17.5483C26.6384 15.2812 27.9692 13.0889 29.4377 12.1956C29.894 11.9181 30.1969 11.9004 34.5051 11.8999C38.8881 11.8993 39.1001 11.8864 39.3852 11.602C39.7563 11.2317 39.7657 10.8306 39.4106 10.5101C39.1704 10.2932 38.633 10.2641 34.8775 10.2641H30.6167L30.4462 9.74898C30.0229 8.46888 27.9133 6.80123 25.9183 6.16914C22.6172 5.12332 19.3197 5.88535 16.9668 8.23742C16.3834 8.82061 15.8164 9.51529 15.7068 9.78094C15.5971 10.0467 15.4563 10.2641 15.3939 10.2641C15.3313 10.2641 15.1304 9.896 14.9474 9.44616C14.0177 7.16084 11.5104 4.31551 9.14841 2.86535C7.0426 1.57247 4.29024 0.749939 2.0697 0.749939C1.09995 0.749939 0.929777 0.789928 0.790006 1.05023ZM4.71537 2.74672C9.6242 3.98906 13.4877 8.10957 14.3423 13.0143C14.5138 13.9994 14.6288 18.2919 14.4836 18.2918C14.4332 18.2916 14.2083 18.0272 13.9839 17.7041C13.0028 16.2917 10.9546 14.7481 9.14766 14.0593C6.35761 12.9955 4.42122 11.2305 3.21723 8.65307C2.54445 7.21287 2.2874 5.92623 2.28428 3.98326L2.28174 2.38518H2.7842C3.06047 2.38518 3.92949 2.54796 4.71537 2.74672ZM24.7684 7.51985C25.2935 7.64323 26.1316 7.96002 26.631 8.22374C27.4827 8.67358 28.8055 9.80547 28.8055 10.0845C28.8055 10.1536 28.1682 10.3228 27.3893 10.4606C24.8278 10.9133 22.6974 11.8347 20.6463 13.3765C19.1662 14.4893 18.1254 15.6092 17.0453 17.251L16.2142 18.5146L16.172 16.2847C16.1487 15.0583 16.2004 13.5866 16.2867 13.0143C16.8766 9.10127 20.7695 6.57943 24.7684 7.51985ZM2.69614 11.0698C2.98343 11.6988 4.81699 13.5132 5.87347 14.2138C6.43435 14.5859 7.3141 15.0597 7.82848 15.2669C10.3777 16.294 11.9556 17.4859 13.0727 19.2286C13.7284 20.2513 14.2803 21.6518 14.4327 22.6796L14.5427 23.4204L13.9474 22.6771C12.5329 20.9107 11.3292 20.0265 8.94009 18.999C7.26269 18.2775 6.33138 17.6667 5.21217 16.5543C3.84605 15.1963 2.78927 13.2147 2.44193 11.3597C2.30871 10.649 2.43716 10.5027 2.69614 11.0698ZM26.2669 13.0791C25.5046 14.1931 24.9825 15.4707 24.6262 17.0939C23.8777 20.5026 22.7895 22.3484 19.6125 25.597C18.0112 27.2343 17.5359 27.8214 17.1452 28.6445C16.6865 29.6106 16.6612 29.7534 16.6612 31.3736V33.0832L17.369 34.5791C17.7583 35.4019 18.0753 36.2716 18.0735 36.5117C18.0687 37.1493 17.5935 38.0907 17.0435 38.5525C16.0632 39.3754 16.1097 39.7676 16.1782 31.2621C16.2371 23.9453 16.256 23.5079 16.5652 22.3213C17.2115 19.8413 18.5223 17.5742 20.3331 15.805C21.4658 14.6983 22.0139 14.2829 23.2751 13.5747C24.0847 13.1201 26.4009 12.205 26.7578 12.1986C26.8198 12.1975 26.5989 12.5937 26.2669 13.0791Z" fill="#010331"/>
<path d="M118.33 39.2674V22.8365C118.33 21.9054 119.088 21.1468 120.019 21.1468C120.95 21.1468 121.709 21.9054 121.709 22.8365V39.2674C121.709 40.1985 120.95 40.9571 120.019 40.9571C119.088 40.9398 118.33 40.1985 118.33 39.2674Z" fill="#010331"/>
<path d="M30.5714 39.7154V24.3189H27.7783C26.9335 24.3189 26.2439 23.6293 26.2439 22.7844C26.2439 21.9396 26.9335 21.2499 27.7783 21.2499H36.6576C37.5024 21.2499 38.1921 21.9396 38.1921 22.7844C38.1921 23.6293 37.5024 24.3189 36.6576 24.3189H33.8991V39.7154C33.8991 40.5602 33.2094 41.2499 32.3645 41.2499H32.1059C31.2611 41.2499 30.5714 40.5602 30.5714 39.7154Z" fill="#010331"/>
<path d="M58.3643 41.2501V21.2329H66.6918C67.5367 21.2329 68.2091 21.9226 68.2091 22.7502C68.2091 23.595 67.5194 24.2674 66.6918 24.2674H61.8125V29.3364H66.1229C66.9677 29.3364 67.6401 30.026 67.6401 30.8536V30.8881C67.6401 31.7329 66.9504 32.4053 66.1229 32.4053H61.8125V37.9226H66.9332C67.778 37.9226 68.4504 38.6122 68.4504 39.4398V39.6984C68.4504 40.5432 67.7608 41.2157 66.9332 41.2157H58.3643V41.2501Z" fill="#010331"/>
<path d="M92.1746 41.2501V21.2329H100.502C101.347 21.2329 102.019 21.9226 102.019 22.7502C102.019 23.595 101.33 24.2674 100.502 24.2674H95.6228V29.3364H99.9332C100.778 29.3364 101.45 30.026 101.45 30.8536V30.8881C101.45 31.7329 100.761 32.4053 99.9332 32.4053H95.6228V37.9226H100.744C101.588 37.9226 102.261 38.6122 102.261 39.4398V39.6984C102.261 40.5432 101.571 41.2157 100.744 41.2157H92.1746V41.2501Z" fill="#010331"/>
<path d="M105.399 39.233V21.1986H113.623C114.451 21.1986 115.123 21.871 115.123 22.6986C115.123 23.5262 114.451 24.1986 113.623 24.1986H108.847V29.3538H112.813C113.64 29.3538 114.313 30.0262 114.313 30.8538V30.8882C114.313 31.7158 113.64 32.3882 112.813 32.3882H108.847V39.2158C108.847 40.1641 108.071 40.9399 107.123 40.9399C106.158 40.9399 105.399 40.1813 105.399 39.233Z" fill="#010331"/>
<path d="M131.606 41.2501C129.45 41.2501 127.692 40.6121 126.502 39.388C126.209 39.0777 125.95 38.7501 125.744 38.388C125.14 37.3363 125.916 36.0259 127.123 36.0259H127.244C127.795 36.0259 128.313 36.319 128.606 36.7846C128.726 36.9742 128.847 37.1294 129.002 37.2846C129.623 37.9225 130.537 38.2673 131.554 38.2673C133.554 38.2673 134.899 37.0949 134.899 35.3535C134.899 32.7501 132.14 32.5087 131.088 32.4225H131.019C129.244 32.2846 125.14 31.4914 125.14 26.7846C125.14 23.1294 127.554 20.8708 131.433 20.8708C133.364 20.8708 134.968 21.4742 136.071 22.5949C136.381 22.9225 136.657 23.2846 136.864 23.6811C137.45 24.7329 136.692 26.0432 135.468 26.0432C134.899 26.0432 134.364 25.7328 134.088 25.2328C133.985 25.0432 133.864 24.8881 133.709 24.7329C133.157 24.1467 132.382 23.819 131.519 23.819C129.709 23.819 128.485 24.9915 128.485 26.7501C128.485 27.6466 128.899 29.1984 131.692 29.5604C135.761 29.9742 138.261 31.0949 138.261 35.4225C138.261 39.0259 135.709 41.2501 131.606 41.2501Z" fill="#010331"/>
<path d="M151.95 39.233V32.6813H145.157V39.233C145.157 40.1813 144.381 40.9572 143.433 40.9572C142.485 40.9572 141.709 40.1813 141.709 39.233V22.9227C141.709 21.9745 142.485 21.1986 143.433 21.1986C144.381 21.1986 145.157 21.9745 145.157 22.9227V29.4227H151.95V22.9227C151.95 21.9745 152.726 21.1986 153.674 21.1986C154.623 21.1986 155.399 21.9745 155.399 22.9227V39.233C155.399 40.1813 154.623 40.9572 153.674 40.9572C152.726 40.9399 151.95 40.1813 151.95 39.233Z" fill="#010331"/>
<path d="M51.0197 39.233V32.6813H44.2266V39.233C44.2266 40.1813 43.4507 40.9572 42.5025 40.9572C41.5542 40.9572 40.7783 40.1813 40.7783 39.233V22.9227C40.7783 21.9745 41.5542 21.1986 42.5025 21.1986C43.4507 21.1986 44.2266 21.9745 44.2266 22.9227V29.4227H51.0197V22.9227C51.0197 21.9745 51.7955 21.1986 52.7438 21.1986C53.6921 21.1986 54.4679 21.9745 54.4679 22.9227V39.233C54.4679 40.1813 53.6921 40.9572 52.7438 40.9572C51.7955 40.9399 51.0197 40.1813 51.0197 39.233Z" fill="#010331"/>
<path d="M159.33 40.9398V21.1812H167.554C168.381 21.1812 169.054 21.8537 169.054 22.6813C169.054 23.5088 168.381 24.1812 167.554 24.1812H162.743V29.1812H167.002C167.83 29.1812 168.502 29.8536 168.502 30.6812V30.7157C168.502 31.5433 167.83 32.2157 167.002 32.2157H162.743V37.6467H167.795C168.623 37.6467 169.295 38.3191 169.295 39.1467V39.3881C169.295 40.2157 168.623 40.8881 167.795 40.8881H159.33V40.9398Z" fill="#010331"/>
<path d="M181.709 39.8536L179.364 34.1295H175.726V39.1984C175.726 40.1467 174.968 40.9053 174.019 40.9053H174.002C173.054 40.9053 172.295 40.1467 172.295 39.1984V21.1812H178.985C182.847 21.1812 185.33 23.8019 185.33 27.8709C185.295 30.3019 184.64 31.8191 183.123 32.9571L182.502 33.4226L184.864 38.4743C185.399 39.6122 184.571 40.9053 183.312 40.9053C182.605 40.9225 181.968 40.4915 181.709 39.8536ZM175.623 31.4398H178.933C180.778 31.4398 182.054 29.9226 182.054 27.7674C182.054 25.664 180.778 24.1812 178.933 24.1812H175.623V31.4398Z" fill="#010331"/>
<path d="M84.6405 39.5086V29.4225L80.6922 37.1466C80.3301 37.8535 79.3301 37.8535 78.9681 37.1466L75.0543 29.4052V39.5086C75.0543 40.4742 74.2784 41.25 73.3129 41.25C72.3474 41.25 71.5715 40.4742 71.5715 39.5086V22.9915C71.5715 21.3535 73.6233 20.6121 74.6577 21.888L79.5715 31.9052C79.6922 32.1466 80.0198 32.1466 80.1405 31.9052L85.0543 21.888C86.0887 20.6121 88.1405 21.3535 88.1405 22.9915V39.5086C88.1405 40.4742 87.3646 41.25 86.3991 41.25C85.4336 41.25 84.6405 40.4742 84.6405 39.5086Z" fill="#010331"/>
</svg>
