<svg width="186" height="40" viewBox="0 0 186 40" fill="none" xmlns="http://www.w3.org/2000/svg">
<path d="M15.1294 28.8792C15.1294 24.4481 12.3535 20.4827 8.18114 18.9827C3.68115 17.362 0.681152 13.0861 0.681152 8.29301V2.25854C8.68113 2.25854 15.1466 8.74131 15.1466 16.724L15.1294 28.8792Z" fill="#2263B8"/>
<path d="M29.8707 9.93096H38.5948C38.6638 9.93096 38.6811 9.8275 38.5948 9.81025L29.7156 8.60339L29.8707 9.93096Z" fill="#0074BC"/>
<path d="M29.7675 9.84477C24.8365 8.82753 19.7158 10.4655 16.2848 14.1551L15.1296 15.3965V23.6723V30.793C15.1296 30.793 15.1296 30.793 15.1468 30.793V39.9998C17.8365 39.9998 19.5779 37.155 18.3365 34.7757L17.1814 32.5344C16.2676 30.7413 16.7503 28.5516 18.3192 27.2757C22.1468 24.1895 24.8193 20.4137 25.4744 16.6206C26.4055 11.2241 30.1468 9.93096 30.1468 9.93096L29.7675 9.84477Z" fill="#FB8B2C"/>
<path d="M15.1296 24.9653V13.0343C15.1296 10.1205 16.5089 7.86191 18.6641 6.49985C21.733 4.55158 25.7158 4.84465 28.5434 7.12051C29.4744 7.86189 30.1641 8.79293 30.1641 9.93085C21.8538 9.93085 15.1296 16.655 15.1296 24.9653Z" fill="#2296BE"/>
<path d="M15.1296 23.6724C15.1296 19.2413 12.3538 15.2759 8.18139 13.7759C3.6814 12.1552 0.681396 7.8793 0.681396 3.08621V0C8.68137 0 15.1468 6.48276 15.1468 14.4655L15.1296 23.6724Z" fill="#2296BE"/>
<path d="M15.1296 29.293L12.8364 39.9998H15.1296V29.293Z" fill="#0074BC"/>
<path d="M118.319 38.0175V21.5865C118.319 20.6555 119.077 19.8969 120.008 19.8969C120.939 19.8969 121.698 20.6555 121.698 21.5865V38.0175C121.698 38.9485 120.939 39.7071 120.008 39.7071C119.077 39.6899 118.319 38.9485 118.319 38.0175Z" fill="#010331"/>
<path d="M30.5604 38.4653V23.0688H27.7674C26.9225 23.0688 26.2329 22.3792 26.2329 21.5344C26.2329 20.6896 26.9225 19.9999 27.7674 19.9999H36.6466C37.4915 19.9999 38.1811 20.6896 38.1811 21.5344C38.1811 22.3792 37.4915 23.0688 36.6466 23.0688H33.8881V38.4653C33.8881 39.3101 33.1984 39.9998 32.3536 39.9998H32.095C31.2501 39.9998 30.5604 39.3101 30.5604 38.4653Z" fill="#010331"/>
<path d="M58.3533 40.0001V19.9829H66.6809C67.5257 19.9829 68.1981 20.6726 68.1981 21.5002C68.1981 22.345 67.5084 23.0174 66.6809 23.0174H61.8015V28.0864H66.1119C66.9567 28.0864 67.6291 28.776 67.6291 29.6036V29.6381C67.6291 30.4829 66.9395 31.1553 66.1119 31.1553H61.8015V36.6726H66.9222C67.767 36.6726 68.4395 37.3622 68.4395 38.1898V38.4484C68.4395 39.2932 67.7498 39.9657 66.9222 39.9657H58.3533V40.0001Z" fill="#010331"/>
<path d="M92.1636 40.0001V19.9829H100.491C101.336 19.9829 102.008 20.6726 102.008 21.5002C102.008 22.345 101.319 23.0174 100.491 23.0174H95.6118V28.0864H99.9222C100.767 28.0864 101.439 28.776 101.439 29.6036V29.6381C101.439 30.4829 100.75 31.1553 99.9222 31.1553H95.6118V36.6726H100.733C101.577 36.6726 102.25 37.3622 102.25 38.1898V38.4484C102.25 39.2932 101.56 39.9657 100.733 39.9657H92.1636V40.0001Z" fill="#010331"/>
<path d="M105.388 37.983V19.9486H113.612C114.44 19.9486 115.112 20.621 115.112 21.4486C115.112 22.2762 114.44 22.9486 113.612 22.9486H108.836V28.1038H112.802C113.629 28.1038 114.302 28.7762 114.302 29.6038V29.6382C114.302 30.4658 113.629 31.1382 112.802 31.1382H108.836V37.9658C108.836 38.9141 108.06 39.6899 107.112 39.6899C106.147 39.6899 105.388 38.9313 105.388 37.983Z" fill="#010331"/>
<path d="M131.595 40C129.439 40 127.681 39.3621 126.491 38.138C126.198 37.8276 125.94 37.5 125.733 37.1379C125.129 36.0862 125.905 34.7759 127.112 34.7759H127.233C127.784 34.7759 128.302 35.069 128.595 35.5345C128.715 35.7241 128.836 35.8793 128.991 36.0345C129.612 36.6724 130.526 37.0172 131.543 37.0172C133.543 37.0172 134.888 35.8448 134.888 34.1034C134.888 31.5 132.129 31.2586 131.077 31.1724H131.008C129.233 31.0345 125.129 30.2414 125.129 25.5345C125.129 21.8793 127.543 19.6207 131.422 19.6207C133.353 19.6207 134.957 20.2242 136.06 21.3449C136.37 21.6724 136.646 22.0345 136.853 22.4311C137.439 23.4828 136.681 24.7931 135.457 24.7931C134.888 24.7931 134.353 24.4828 134.077 23.9828C133.974 23.7931 133.853 23.638 133.698 23.4828C133.146 22.8966 132.371 22.569 131.508 22.569C129.698 22.569 128.474 23.7414 128.474 25.5C128.474 26.3966 128.888 27.9483 131.681 28.3104C135.75 28.7242 138.25 29.8448 138.25 34.1724C138.25 37.7759 135.698 40 131.595 40Z" fill="#010331"/>
<path d="M151.939 37.983V31.4313H145.146V37.983C145.146 38.9313 144.37 39.7072 143.422 39.7072C142.474 39.7072 141.698 38.9313 141.698 37.983V21.6727C141.698 20.7245 142.474 19.9486 143.422 19.9486C144.37 19.9486 145.146 20.7245 145.146 21.6727V28.1727H151.939V21.6727C151.939 20.7245 152.715 19.9486 153.663 19.9486C154.612 19.9486 155.388 20.7245 155.388 21.6727V37.983C155.388 38.9313 154.612 39.7072 153.663 39.7072C152.715 39.6899 151.939 38.9313 151.939 37.983Z" fill="#010331"/>
<path d="M51.0087 37.983V31.4313H44.2156V37.983C44.2156 38.9313 43.4397 39.7072 42.4915 39.7072C41.5432 39.7072 40.7673 38.9313 40.7673 37.983V21.6727C40.7673 20.7245 41.5432 19.9486 42.4915 19.9486C43.4397 19.9486 44.2156 20.7245 44.2156 21.6727V28.1727H51.0087V21.6727C51.0087 20.7245 51.7845 19.9486 52.7328 19.9486C53.6811 19.9486 54.457 20.7245 54.457 21.6727V37.983C54.457 38.9313 53.6811 39.7072 52.7328 39.7072C51.7845 39.6899 51.0087 38.9313 51.0087 37.983Z" fill="#010331"/>
<path d="M159.319 39.6898V19.9312H167.543C168.37 19.9312 169.043 20.6036 169.043 21.4312C169.043 22.2588 168.37 22.9312 167.543 22.9312H162.732V27.9312H166.991C167.819 27.9312 168.491 28.6036 168.491 29.4311V29.4656C168.491 30.2932 167.819 30.9656 166.991 30.9656H162.732V36.3967H167.784C168.612 36.3967 169.284 37.0691 169.284 37.8966V38.138C169.284 38.9656 168.612 39.638 167.784 39.638H159.319V39.6898Z" fill="#010331"/>
<path d="M181.698 38.6035L179.353 32.8794H175.715V37.9484C175.715 38.8966 174.957 39.6552 174.008 39.6552H173.991C173.043 39.6552 172.284 38.8966 172.284 37.9484V19.9312H178.974C182.836 19.9312 185.319 22.5518 185.319 26.6208C185.284 29.0518 184.629 30.5691 183.112 31.707L182.491 32.1725L184.853 37.2242C185.388 38.3621 184.56 39.6552 183.301 39.6552C182.594 39.6725 181.957 39.2415 181.698 38.6035ZM175.612 30.1898H178.922C180.767 30.1898 182.043 28.6725 182.043 26.5174C182.043 24.4139 180.767 22.9312 178.922 22.9312H175.612V30.1898Z" fill="#010331"/>
<path d="M84.6295 38.2586V28.1724L80.6812 35.8965C80.3192 36.6034 79.3192 36.6034 78.9571 35.8965L75.0433 28.1552V38.2586C75.0433 39.2241 74.2675 40 73.3019 40C72.3364 40 71.5605 39.2241 71.5605 38.2586V21.7414C71.5605 20.1035 73.6123 19.3621 74.6468 20.6379L79.5605 30.6551C79.6812 30.8965 80.0088 30.8965 80.1295 30.6551L85.0433 20.6379C86.0778 19.3621 88.1295 20.1035 88.1295 21.7414V38.2586C88.1295 39.2241 87.3536 40 86.3881 40C85.4226 40 84.6295 39.2241 84.6295 38.2586Z" fill="#010331"/>
</svg>
