<svg width="186" height="42" viewBox="0 0 186 42" fill="none" xmlns="http://www.w3.org/2000/svg">
<path fill-rule="evenodd" clip-rule="evenodd" d="M0.745557 3.41047C0.824596 6.2154 1.05109 7.29088 1.92576 9.01336C3.04757 11.2227 5.25812 13.3087 7.44846 14.2252C10.9443 15.688 12.5128 16.9336 13.9238 19.3676C14.4798 20.3265 15.0445 22.1085 15.1477 23.2303L15.2368 24.196L14.9395 23.1159C14.2945 20.7715 12.6252 18.3973 10.6982 17.0832C10.2674 16.7895 9.16801 16.2245 8.25487 15.8277C6.31512 14.9845 5.45063 14.4374 4.25052 13.293C2.67453 11.7901 1.54059 9.82631 1.03881 7.73063L0.78358 6.66511L0.736127 8.22506C0.652597 10.9737 1.22773 13.2282 2.5178 15.2093C3.85982 17.2699 5.52144 18.59 8.28182 19.7883C10.1841 20.6142 11.0431 21.1621 12.1362 22.2471C14.0298 24.1264 15.2188 26.8589 15.2266 29.3488C15.2281 29.8511 14.7743 32.2842 14.1065 35.3532C13.489 38.1911 12.9837 40.576 12.9837 40.6531C12.9837 40.7359 13.6732 40.7705 14.6678 40.7377C16.1205 40.6898 16.4435 40.6314 17.0185 40.3131C18.3942 39.5515 19.1942 37.825 18.8165 36.4328C18.7219 36.084 18.2741 35.0658 17.8216 34.1704C16.8538 32.2553 16.7089 31.4528 17.0936 30.1395C17.334 29.3188 17.4896 29.1325 19.9357 26.7336C23.4801 23.2579 24.7935 21.2172 25.5724 17.9758C26.4554 14.3011 27.4048 12.6249 29.3237 11.3531L30.2328 10.7507L34.5944 10.7406C37.2353 10.7345 38.8378 10.6791 38.6565 10.6C38.4918 10.5283 36.5075 10.227 34.2468 9.93061C30.5158 9.44123 30.1161 9.3616 29.9164 9.06818C29.1312 7.91501 27.138 6.67537 25.3396 6.22164C21.6822 5.29905 17.6707 7.06728 16.076 10.305C15.7742 10.9178 15.4847 11.7535 15.4328 12.1621C15.3209 13.0419 15.0912 13.5669 15.084 12.9587C15.0753 12.2099 14.312 9.94427 13.621 8.61654C11.3055 4.16697 6.87768 1.22357 1.93264 0.84621L0.67041 0.749939L0.745557 3.41047ZM27.2214 11.9437C26.1716 13.1847 25.3665 14.7419 25.0348 16.1734C24.3175 19.2696 23.8211 20.4995 22.4815 22.4993C21.6941 23.6749 19.4874 26.0278 18.1735 27.093C17.72 27.4607 17.0909 28.1533 16.7755 28.6322L16.2022 29.5026L16.1522 28.9293C16.1247 28.6139 16.1247 26.5842 16.1522 24.4188L16.2022 20.4818L16.752 19.3392C18.3394 16.0401 21.2094 13.2956 24.5118 11.9184C25.4787 11.5154 27.4588 10.9273 27.9169 10.9074C28.0203 10.903 27.7075 11.3692 27.2214 11.9437ZM17.1405 34.93C18.0268 36.725 18.1241 37.4118 17.6285 38.3759C17.3499 38.9177 16.6845 39.5726 16.4124 39.5726C16.3443 39.5726 16.2691 38.1686 16.2455 36.4526C16.2217 34.7366 16.2359 33.3327 16.277 33.3328C16.3182 33.333 16.7068 34.0517 17.1405 34.93Z" fill="#010331"/>
<path d="M118.33 39.2674V22.8365C118.33 21.9054 119.088 21.1468 120.019 21.1468C120.95 21.1468 121.709 21.9054 121.709 22.8365V39.2674C121.709 40.1985 120.95 40.9571 120.019 40.9571C119.088 40.9398 118.33 40.1985 118.33 39.2674Z" fill="#010331"/>
<path d="M30.5714 39.7154V24.3189H27.7783C26.9335 24.3189 26.2439 23.6293 26.2439 22.7844C26.2439 21.9396 26.9335 21.2499 27.7783 21.2499H36.6576C37.5024 21.2499 38.1921 21.9396 38.1921 22.7844C38.1921 23.6293 37.5024 24.3189 36.6576 24.3189H33.8991V39.7154C33.8991 40.5602 33.2094 41.2499 32.3645 41.2499H32.1059C31.2611 41.2499 30.5714 40.5602 30.5714 39.7154Z" fill="#010331"/>
<path d="M58.3643 41.2501V21.2329H66.6918C67.5367 21.2329 68.2091 21.9226 68.2091 22.7502C68.2091 23.595 67.5194 24.2674 66.6918 24.2674H61.8125V29.3364H66.1229C66.9677 29.3364 67.6401 30.026 67.6401 30.8536V30.8881C67.6401 31.7329 66.9504 32.4053 66.1229 32.4053H61.8125V37.9226H66.9332C67.778 37.9226 68.4504 38.6122 68.4504 39.4398V39.6984C68.4504 40.5432 67.7608 41.2157 66.9332 41.2157H58.3643V41.2501Z" fill="#010331"/>
<path d="M92.1746 41.2501V21.2329H100.502C101.347 21.2329 102.019 21.9226 102.019 22.7502C102.019 23.595 101.33 24.2674 100.502 24.2674H95.6228V29.3364H99.9332C100.778 29.3364 101.45 30.026 101.45 30.8536V30.8881C101.45 31.7329 100.761 32.4053 99.9332 32.4053H95.6228V37.9226H100.744C101.588 37.9226 102.261 38.6122 102.261 39.4398V39.6984C102.261 40.5432 101.571 41.2157 100.744 41.2157H92.1746V41.2501Z" fill="#010331"/>
<path d="M105.399 39.233V21.1986H113.623C114.451 21.1986 115.123 21.871 115.123 22.6986C115.123 23.5262 114.451 24.1986 113.623 24.1986H108.847V29.3538H112.813C113.64 29.3538 114.313 30.0262 114.313 30.8538V30.8882C114.313 31.7158 113.64 32.3882 112.813 32.3882H108.847V39.2158C108.847 40.1641 108.071 40.9399 107.123 40.9399C106.158 40.9399 105.399 40.1813 105.399 39.233Z" fill="#010331"/>
<path d="M131.606 41.2501C129.45 41.2501 127.692 40.6121 126.502 39.388C126.209 39.0777 125.95 38.7501 125.744 38.388C125.14 37.3363 125.916 36.0259 127.123 36.0259H127.244C127.795 36.0259 128.313 36.319 128.606 36.7846C128.726 36.9742 128.847 37.1294 129.002 37.2846C129.623 37.9225 130.537 38.2673 131.554 38.2673C133.554 38.2673 134.899 37.0949 134.899 35.3535C134.899 32.7501 132.14 32.5087 131.088 32.4225H131.019C129.244 32.2846 125.14 31.4914 125.14 26.7846C125.14 23.1294 127.554 20.8708 131.433 20.8708C133.364 20.8708 134.968 21.4742 136.071 22.5949C136.381 22.9225 136.657 23.2846 136.864 23.6811C137.45 24.7329 136.692 26.0432 135.468 26.0432C134.899 26.0432 134.364 25.7328 134.088 25.2328C133.985 25.0432 133.864 24.8881 133.709 24.7329C133.157 24.1467 132.382 23.819 131.519 23.819C129.709 23.819 128.485 24.9915 128.485 26.7501C128.485 27.6466 128.899 29.1984 131.692 29.5604C135.761 29.9742 138.261 31.0949 138.261 35.4225C138.261 39.0259 135.709 41.2501 131.606 41.2501Z" fill="#010331"/>
<path d="M151.95 39.233V32.6813H145.157V39.233C145.157 40.1813 144.381 40.9572 143.433 40.9572C142.485 40.9572 141.709 40.1813 141.709 39.233V22.9227C141.709 21.9745 142.485 21.1986 143.433 21.1986C144.381 21.1986 145.157 21.9745 145.157 22.9227V29.4227H151.95V22.9227C151.95 21.9745 152.726 21.1986 153.674 21.1986C154.623 21.1986 155.399 21.9745 155.399 22.9227V39.233C155.399 40.1813 154.623 40.9572 153.674 40.9572C152.726 40.9399 151.95 40.1813 151.95 39.233Z" fill="#010331"/>
<path d="M51.0197 39.233V32.6813H44.2266V39.233C44.2266 40.1813 43.4507 40.9572 42.5025 40.9572C41.5542 40.9572 40.7783 40.1813 40.7783 39.233V22.9227C40.7783 21.9745 41.5542 21.1986 42.5025 21.1986C43.4507 21.1986 44.2266 21.9745 44.2266 22.9227V29.4227H51.0197V22.9227C51.0197 21.9745 51.7955 21.1986 52.7438 21.1986C53.6921 21.1986 54.4679 21.9745 54.4679 22.9227V39.233C54.4679 40.1813 53.6921 40.9572 52.7438 40.9572C51.7955 40.9399 51.0197 40.1813 51.0197 39.233Z" fill="#010331"/>
<path d="M159.33 40.9398V21.1812H167.554C168.381 21.1812 169.054 21.8537 169.054 22.6813C169.054 23.5088 168.381 24.1812 167.554 24.1812H162.743V29.1812H167.002C167.83 29.1812 168.502 29.8536 168.502 30.6812V30.7157C168.502 31.5433 167.83 32.2157 167.002 32.2157H162.743V37.6467H167.795C168.623 37.6467 169.295 38.3191 169.295 39.1467V39.3881C169.295 40.2157 168.623 40.8881 167.795 40.8881H159.33V40.9398Z" fill="#010331"/>
<path d="M181.709 39.8536L179.364 34.1295H175.726V39.1984C175.726 40.1467 174.968 40.9053 174.019 40.9053H174.002C173.054 40.9053 172.295 40.1467 172.295 39.1984V21.1812H178.985C182.847 21.1812 185.33 23.8019 185.33 27.8709C185.295 30.3019 184.64 31.8191 183.123 32.9571L182.502 33.4226L184.864 38.4743C185.399 39.6122 184.571 40.9053 183.312 40.9053C182.605 40.9225 181.968 40.4915 181.709 39.8536ZM175.623 31.4398H178.933C180.778 31.4398 182.054 29.9226 182.054 27.7674C182.054 25.664 180.778 24.1812 178.933 24.1812H175.623V31.4398Z" fill="#010331"/>
<path d="M84.6405 39.5086V29.4225L80.6922 37.1466C80.3301 37.8535 79.3301 37.8535 78.9681 37.1466L75.0543 29.4052V39.5086C75.0543 40.4742 74.2784 41.25 73.3129 41.25C72.3474 41.25 71.5715 40.4742 71.5715 39.5086V22.9915C71.5715 21.3535 73.6233 20.6121 74.6577 21.888L79.5715 31.9052C79.6922 32.1466 80.0198 32.1466 80.1405 31.9052L85.0543 21.888C86.0887 20.6121 88.1405 21.3535 88.1405 22.9915V39.5086C88.1405 40.4742 87.3646 41.25 86.3991 41.25C85.4336 41.25 84.6405 40.4742 84.6405 39.5086Z" fill="#010331"/>
</svg>
