<svg width="57" height="59" viewBox="0 0 57 59" fill="none" xmlns="http://www.w3.org/2000/svg">
<path d="M42.5116 15.4697C39.6142 16.4355 37.028 19.8798 36.2338 24.645C35.268 30.4399 31.9881 34.1963 28.9902 37.2006C25.4677 40.7305 25.1614 45.6082 26.5757 48.7903C28.3474 52.7767 27.4689 55.5442 23.4075 56.7204C22.8048 56.895 22.2295 56.4183 22.2295 55.7908V44.4442" stroke="white" stroke-width="3" stroke-linecap="round"/>
<path d="M42.5116 15.4697C39.6142 16.4355 37.028 19.8798 36.2338 24.645C35.268 30.4399 31.9881 34.1963 28.9902 37.2006C25.4677 40.7305 25.1614 45.6082 26.5757 48.7903C28.3474 52.7767 27.4689 55.5442 23.4075 56.7204C22.8048 56.895 22.2295 56.4183 22.2295 55.7908V44.4442" stroke="white" stroke-width="3" stroke-linecap="round"/>
<path d="M42.5116 15.4697C39.6142 16.4355 37.028 19.8798 36.2338 24.645C35.268 30.4399 31.9881 34.1963 28.9902 37.2006C25.4677 40.7305 25.1614 45.6082 26.5757 48.7903C28.3474 52.7767 27.4689 55.5442 23.4075 56.7204C22.8048 56.895 22.2295 56.4183 22.2295 55.7908V44.4442" stroke="url(#paint0_linear_1_1731)" stroke-width="3" stroke-linecap="round"/>
<path d="M55.4415 16.8779C56.2699 16.8779 56.9415 16.2064 56.9415 15.3779C56.9415 14.5495 56.2699 13.8779 55.4415 13.8779V16.8779ZM55.4415 13.8779H42.1992V16.8779H55.4415V13.8779Z" fill="#0074BC"/>
<path d="M5.33623 22.2308L6.5994 21.4219L5.33623 22.2308ZM13.54 28.0257L12.9334 29.3976L13.54 28.0257ZM20.7803 39.0259C20.9881 39.8279 21.8067 40.3095 22.6086 40.1017C23.4106 39.8939 23.8922 39.0754 23.6844 38.2734L20.7803 39.0259ZM1.42291 0.428592C0.951952 10.3103 -0.0765724 16.5603 4.07307 23.0398L6.5994 21.4219C3.09876 15.9558 3.92383 10.9718 4.41951 0.571408L1.42291 0.428592ZM4.07307 23.0398C4.32881 23.4391 4.87199 24.3189 6.22993 25.4657C7.55952 26.5887 9.6323 27.9379 12.9334 29.3976L14.1467 26.6539C11.0395 25.2799 9.22739 24.0705 8.16563 23.1738C7.13222 22.301 6.77762 21.7002 6.5994 21.4219L4.07307 23.0398ZM12.9334 29.3976C14.7315 30.1927 19.1873 32.8783 20.7803 39.0259L23.6844 38.2734C21.7785 30.9181 16.4243 27.661 14.1467 26.6539L12.9334 29.3976Z" fill="white"/>
<path d="M5.33623 22.2308L6.5994 21.4219L5.33623 22.2308ZM13.54 28.0257L12.9334 29.3976L13.54 28.0257ZM20.7803 39.0259C20.9881 39.8279 21.8067 40.3095 22.6086 40.1017C23.4106 39.8939 23.8922 39.0754 23.6844 38.2734L20.7803 39.0259ZM1.42291 0.428592C0.951952 10.3103 -0.0765724 16.5603 4.07307 23.0398L6.5994 21.4219C3.09876 15.9558 3.92383 10.9718 4.41951 0.571408L1.42291 0.428592ZM4.07307 23.0398C4.32881 23.4391 4.87199 24.3189 6.22993 25.4657C7.55952 26.5887 9.6323 27.9379 12.9334 29.3976L14.1467 26.6539C11.0395 25.2799 9.22739 24.0705 8.16563 23.1738C7.13222 22.301 6.77762 21.7002 6.5994 21.4219L4.07307 23.0398ZM12.9334 29.3976C14.7315 30.1927 19.1873 32.8783 20.7803 39.0259L23.6844 38.2734C21.7785 30.9181 16.4243 27.661 14.1467 26.6539L12.9334 29.3976Z" fill="#0074BC"/>
<path d="M22.2295 45.4107V38.65V34.3039M22.2295 34.3039V16.9192C22.9707 9.87693 36.8783 4.37595 43.156 14.0597C43.5604 14.6834 43.0892 15.4754 42.3474 15.5235C35.7459 15.9517 24.6707 19.2296 22.2295 34.3039Z" stroke="url(#paint1_linear_1_1731)" stroke-width="3" stroke-linecap="round"/>
<path d="M22.2295 45.4101L22.2295 36.7178" stroke="#5AC2BF" stroke-width="3" stroke-linecap="round"/>
<path d="M22.2337 43.4788V29.9573M22.2337 29.9573V17.4018C20.474 11.2969 15.9287 2.5052 3.8495 2.02578C3.56972 2.01468 3.3341 2.23821 3.32868 2.51817C3.26614 5.74726 2.79626 12.173 7.52324 17.1335C11.0971 20.8839 16.4125 19.0232 22.2337 29.9573Z" stroke="url(#paint2_linear_1_1731)" stroke-width="3"/>
<defs>
<linearGradient id="paint0_linear_1_1731" x1="36.9869" y1="4.68968" x2="15.0898" y2="75.77" gradientUnits="userSpaceOnUse">
<stop stop-color="#FFDD00"/>
<stop offset="1" stop-color="#EF4056"/>
</linearGradient>
<linearGradient id="paint1_linear_1_1731" x1="43.6468" y1="26.8922" x2="0.211704" y2="26.8922" gradientUnits="userSpaceOnUse">
<stop stop-color="#5BC4BF"/>
<stop offset="1" stop-color="#2A5CAA"/>
</linearGradient>
<linearGradient id="paint2_linear_1_1731" x1="22.8402" y1="23.6182" x2="-6.13065" y2="22.7751" gradientUnits="userSpaceOnUse">
<stop stop-color="#5BC4BF"/>
<stop offset="1" stop-color="#2A5CAA"/>
</linearGradient>
</defs>
</svg>
