<svg width="56" height="57" viewBox="0 0 56 57" fill="none" xmlns="http://www.w3.org/2000/svg">
<path fill-rule="evenodd" clip-rule="evenodd" d="M0.171728 0.427914C0.0142511 0.719615 -0.0334627 3.16592 0.0225955 8.10705C0.0991942 14.8554 0.137921 15.468 0.581252 16.9413C1.96324 21.5317 5.18059 25.3731 9.26749 27.3123C10.2089 27.7591 11.7013 28.4637 12.5839 28.8784C15.6795 30.3327 18.2486 33.3181 19.3353 36.7243C19.8785 38.4271 19.8854 38.5353 20.0071 47.4497C20.081 52.8681 20.2143 56.5604 20.3416 56.7197C20.7391 57.2178 22.482 57.029 23.882 56.3363C26.0933 55.2424 27.2044 53.4449 27.2132 50.9471C27.2179 49.6295 27.1188 49.2636 26.3242 47.6636C25.2107 45.4213 24.9283 44.0668 25.2336 42.4319C25.5851 40.5492 26.1374 39.7216 28.7287 37.1929C33.303 32.7295 35.679 28.7488 36.6412 23.9377C37.2874 20.707 39.1983 17.583 41.3069 16.3101C41.9621 15.9146 42.397 15.8894 48.5831 15.8887C54.8766 15.8879 55.1811 15.8694 55.5904 15.4642C56.1234 14.9365 56.1369 14.365 55.627 13.9082C55.2821 13.5992 54.5103 13.5577 49.1178 13.5577H42.9998L42.755 12.8236C42.1471 10.9995 39.1181 8.62309 36.2533 7.72235C31.5134 6.23207 26.7784 7.31796 23.3999 10.6697C22.5623 11.5007 21.7481 12.4906 21.5907 12.8692C21.4332 13.2479 21.231 13.5577 21.1414 13.5577C21.0515 13.5577 20.7631 13.0331 20.5003 12.3921C19.1654 9.13553 15.5651 5.08094 12.1735 3.01446C9.14981 1.1721 5.19771 0 2.00924 0C0.61677 0 0.372425 0.0569846 0.171728 0.427914ZM5.80815 2.84541C12.8567 4.61575 18.4043 10.4875 19.6314 17.4767C19.8777 18.8805 20.0429 24.9974 19.8343 24.9971C19.7619 24.9969 19.4391 24.6201 19.1168 24.1597C17.7081 22.1471 14.767 19.9473 12.1725 18.9659C8.16623 17.45 5.38578 14.9348 3.65697 11.262C2.69092 9.20967 2.32184 7.37621 2.31735 4.60748L2.31371 2.33022H3.03519C3.43188 2.33022 4.67971 2.56218 5.80815 2.84541ZM34.6022 9.64712C35.3562 9.82294 36.5597 10.2744 37.2767 10.6502C38.4997 11.2912 40.3991 12.9041 40.3991 13.3018C40.3991 13.4003 39.4839 13.6413 38.3656 13.8377C34.6875 14.4828 31.6285 15.7957 28.6833 17.9929C26.558 19.5785 25.0635 21.1745 23.5127 23.5141L22.3192 25.3147L22.2587 22.1371C22.2253 20.3894 22.2995 18.2922 22.4234 17.4767C23.2705 11.9007 28.8603 8.30703 34.6022 9.64712ZM2.90874 14.7058C3.32126 15.6021 5.95407 18.1876 7.47106 19.186C8.27642 19.7162 9.53965 20.3913 10.2783 20.6867C13.9387 22.1502 16.2044 23.8488 17.8085 26.3321C18.7499 27.7894 19.5424 29.7851 19.7613 31.2498L19.9192 32.3053L19.0644 31.2462C17.0333 28.7291 15.3049 27.4691 11.8744 26.0049C9.46584 24.9768 8.12857 24.1064 6.5215 22.5212C4.55989 20.586 3.04246 17.7622 2.54372 15.1189C2.35244 14.1061 2.53687 13.8977 2.90874 14.7058ZM36.754 17.569C35.6594 19.1565 34.9096 20.9771 34.398 23.2901C33.3233 28.1476 31.7607 30.7778 27.1988 35.4071C24.8996 37.7403 24.2171 38.5768 23.6561 39.7498C22.9975 41.1265 22.9611 41.3299 22.9611 43.6387V46.0748L23.9774 48.2066C24.5365 49.3791 24.9916 50.6183 24.989 50.9605C24.9822 51.869 24.2999 53.2106 23.5101 53.8686C22.1025 55.0413 22.1692 55.6002 22.2677 43.4798C22.3522 33.0533 22.3793 32.4301 22.8233 30.7392C23.7513 27.2051 25.6335 23.9746 28.2336 21.4535C29.8601 19.8764 30.6471 19.2845 32.458 18.2753C33.6205 17.6275 36.9463 16.3234 37.4588 16.3143C37.5478 16.3128 37.2307 16.8774 36.754 17.569Z" fill="#010331"/>
</svg>
