<svg width="54" height="56" viewBox="0 0 54 56" fill="none" xmlns="http://www.w3.org/2000/svg">
<path d="M20.6341 40.4308C20.6341 34.2273 16.7479 28.6756 10.9065 26.5756C4.60652 24.3066 0.406494 18.3204 0.406494 11.61V3.16174C11.6065 3.16174 20.6582 12.2377 20.6582 23.4135L20.6341 40.4308Z" fill="#0074BC"/>
<path d="M41.2719 13.9025H53.4857C53.5823 13.9025 53.6064 13.7577 53.4857 13.7336L41.0547 12.0439L41.2719 13.9025Z" fill="#0074BC"/>
<path d="M41.1259 13.7824C34.2225 12.3583 27.0535 14.6514 22.25 19.8169L20.6328 21.5548V33.141V43.11C20.6328 43.11 20.6328 43.11 20.6569 43.11V55.9997C24.4224 55.9997 26.8604 52.017 25.1224 48.6859L23.5052 45.548C22.2259 43.0377 22.9017 39.9721 25.0983 38.1859C30.4569 33.8652 34.1984 28.579 35.1156 23.2686C36.419 15.7134 41.657 13.9031 41.657 13.9031L41.1259 13.7824Z" fill="url(#paint0_linear_1_1684)"/>
<path d="M20.6328 34.9508V18.2472C20.6328 14.1679 22.5638 11.0059 25.5811 9.09901C29.8776 6.37142 35.4535 6.78173 39.4122 9.96794C40.7156 11.0059 41.6811 12.3093 41.6811 13.9024C30.0466 13.9024 20.6328 23.3163 20.6328 34.9508Z" fill="url(#paint1_linear_1_1684)"/>
<path d="M20.6339 33.1413C20.6339 26.9379 16.7477 21.3862 10.9063 19.2862C4.60627 17.0172 0.40625 11.031 0.40625 4.3206V-0.00012207C11.6063 -0.00012207 20.658 9.07579 20.658 20.2517L20.6339 33.1413Z" fill="url(#paint2_linear_1_1684)"/>
<path d="M20.6362 41.0096L17.4258 55.9993H20.6362V41.0096Z" fill="#0074BC"/>
<defs>
<linearGradient id="paint0_linear_1_1684" x1="34.0897" y1="14.9888" x2="17.6901" y2="47.7882" gradientUnits="userSpaceOnUse">
<stop stop-color="#FFDD00"/>
<stop offset="1" stop-color="#EF4056"/>
</linearGradient>
<linearGradient id="paint1_linear_1_1684" x1="42.378" y1="21.1257" x2="-1.93813" y2="21.1257" gradientUnits="userSpaceOnUse">
<stop stop-color="#5BC4BF"/>
<stop offset="1" stop-color="#2A5CAA"/>
</linearGradient>
<linearGradient id="paint2_linear_1_1684" x1="0.383802" y1="16.5786" x2="33.7535" y2="16.5786" gradientUnits="userSpaceOnUse">
<stop stop-color="#5BC4BF"/>
<stop offset="1" stop-color="#2A5CAA"/>
</linearGradient>
</defs>
</svg>
