<svg width="57" height="59" viewBox="0 0 57 59" fill="none" xmlns="http://www.w3.org/2000/svg">
<path d="M42.5121 15.4697C39.6146 16.4355 37.0285 19.8798 36.2343 24.645C35.2685 30.4399 31.9886 34.1963 28.9907 37.2006C25.4682 40.7305 25.1619 45.6082 26.5761 48.7903C28.3479 52.7767 27.4694 55.5442 23.408 56.7204C22.8053 56.895 22.23 56.4183 22.23 55.7908V44.4442" stroke="white" stroke-width="3" stroke-linecap="round"/>
<path d="M42.5121 15.4697C39.6146 16.4355 37.0285 19.8798 36.2343 24.645C35.2685 30.4399 31.9886 34.1963 28.9907 37.2006C25.4682 40.7305 25.1619 45.6082 26.5761 48.7903C28.3479 52.7767 27.4694 55.5442 23.408 56.7204C22.8053 56.895 22.23 56.4183 22.23 55.7908V44.4442" stroke="white" stroke-width="3" stroke-linecap="round"/>
<path d="M42.5121 15.4697C39.6146 16.4355 37.0285 19.8798 36.2343 24.645C35.2685 30.4399 31.9886 34.1963 28.9907 37.2006C25.4682 40.7305 25.1619 45.6082 26.5761 48.7903C28.3479 52.7767 27.4694 55.5442 23.408 56.7204C22.8053 56.895 22.23 56.4183 22.23 55.7908V44.4442" stroke="#FB8B2C" stroke-width="3" stroke-linecap="round"/>
<path d="M55.4413 16.8777C56.2697 16.8777 56.9413 16.2061 56.9413 15.3777C56.9413 14.5493 56.2697 13.8777 55.4413 13.8777V16.8777ZM55.4413 13.8777H42.199V16.8777H55.4413V13.8777Z" fill="#2263B8"/>
<path d="M5.33623 22.2308L6.5994 21.4219L5.33623 22.2308ZM13.54 28.0257L12.9334 29.3976L13.54 28.0257ZM20.7803 39.0259C20.9881 39.8279 21.8067 40.3095 22.6086 40.1017C23.4106 39.8939 23.8922 39.0754 23.6844 38.2734L20.7803 39.0259ZM1.42291 0.428592C0.951952 10.3103 -0.0765724 16.5603 4.07307 23.0398L6.5994 21.4219C3.09876 15.9558 3.92383 10.9718 4.41951 0.571408L1.42291 0.428592ZM4.07307 23.0398C4.32881 23.4391 4.87199 24.3189 6.22993 25.4657C7.55952 26.5887 9.6323 27.9379 12.9334 29.3976L14.1467 26.6539C11.0395 25.2799 9.22739 24.0705 8.16563 23.1738C7.13222 22.301 6.77762 21.7002 6.5994 21.4219L4.07307 23.0398ZM12.9334 29.3976C14.7315 30.1927 19.1873 32.8783 20.7803 39.0259L23.6844 38.2734C21.7785 30.9181 16.4243 27.661 14.1467 26.6539L12.9334 29.3976Z" fill="white"/>
<path d="M5.33623 22.2308L6.5994 21.4219L5.33623 22.2308ZM13.54 28.0257L12.9334 29.3976L13.54 28.0257ZM20.7803 39.0259C20.9881 39.8279 21.8067 40.3095 22.6086 40.1017C23.4106 39.8939 23.8922 39.0754 23.6844 38.2734L20.7803 39.0259ZM1.42291 0.428592C0.951952 10.3103 -0.0765724 16.5603 4.07307 23.0398L6.5994 21.4219C3.09876 15.9558 3.92383 10.9718 4.41951 0.571408L1.42291 0.428592ZM4.07307 23.0398C4.32881 23.4391 4.87199 24.3189 6.22993 25.4657C7.55952 26.5887 9.6323 27.9379 12.9334 29.3976L14.1467 26.6539C11.0395 25.2799 9.22739 24.0705 8.16563 23.1738C7.13222 22.301 6.77762 21.7002 6.5994 21.4219L4.07307 23.0398ZM12.9334 29.3976C14.7315 30.1927 19.1873 32.8783 20.7803 39.0259L23.6844 38.2734C21.7785 30.9181 16.4243 27.661 14.1467 26.6539L12.9334 29.3976Z" fill="#2263B8"/>
<path d="M22.23 45.4107V38.65V34.3039M22.23 34.3039V16.9192C22.9712 9.87693 36.8788 4.37595 43.1565 14.0597C43.5609 14.6834 43.0897 15.4754 42.3479 15.5235C35.7464 15.9517 24.6712 19.2296 22.23 34.3039Z" stroke="#2296BE" stroke-width="3" stroke-linecap="round"/>
<path d="M22.23 45.4101L22.23 36.7178" stroke="#5AC2BF" stroke-width="3" stroke-linecap="round"/>
<path d="M22.2337 43.4788V29.9573M22.2337 29.9573V17.4018C20.474 11.2969 15.9287 2.5052 3.8495 2.02578C3.56972 2.01468 3.3341 2.23821 3.32868 2.51817C3.26614 5.74726 2.79626 12.173 7.52324 17.1335C11.0971 20.8839 16.4125 19.0232 22.2337 29.9573Z" stroke="#2296BE" stroke-width="3"/>
</svg>
