<svg width="52" height="55" viewBox="0 0 52 55" fill="none" xmlns="http://www.w3.org/2000/svg">
<path fill-rule="evenodd" clip-rule="evenodd" d="M0.102833 3.65823C0.210992 7.51501 0.520924 8.99379 1.71784 11.3622C3.25296 14.4 6.27792 17.2683 9.27523 18.5285C14.059 20.5398 16.2054 22.2525 18.1363 25.5992C18.8971 26.9178 19.6697 29.368 19.8111 30.9105L19.933 32.2383L19.5261 30.7532C18.6435 27.5297 16.3592 24.2651 13.7222 22.4582C13.1327 22.0544 11.6283 21.2775 10.3787 20.7319C7.72434 19.5726 6.54135 18.8202 4.8991 17.2467C2.74248 15.1802 1.19077 12.48 0.504127 9.59845L0.154864 8.13337L0.0899277 10.2783C-0.0243765 14.0577 0.762642 17.1576 2.52801 19.8817C4.36445 22.715 6.63825 24.53 10.4156 26.1777C13.0188 27.3133 14.1942 28.0667 15.69 29.5586C18.2813 32.1427 19.9084 35.8998 19.919 39.3235C19.9211 40.0142 19.3 43.3596 18.3862 47.5794C17.5412 51.4816 16.8498 54.7609 16.8498 54.8669C16.8498 54.9807 17.7934 55.0283 19.1544 54.9831C21.1422 54.9173 21.5842 54.8371 22.371 54.3993C24.2536 53.3521 25.3483 50.9782 24.8315 49.0639C24.702 48.5843 24.0893 47.1844 23.47 45.9532C22.1457 43.3198 21.9474 42.2165 22.4739 40.4107C22.8029 39.2822 23.0157 39.0261 26.3631 35.7276C31.2132 30.9485 33.0106 28.1425 34.0764 23.6855C35.2848 18.6329 36.5839 16.328 39.2098 14.5794L40.4538 13.751L46.4222 13.7371C50.0361 13.7288 52.229 13.6526 51.981 13.5439C51.7556 13.4452 49.0402 13.031 45.9466 12.6234C40.841 11.9505 40.2941 11.841 40.0208 11.4376C38.9464 9.85196 36.2189 8.14746 33.7578 7.52359C28.753 6.25502 23.2636 8.68635 21.0813 13.1382C20.6684 13.9809 20.2722 15.1299 20.2011 15.6917C20.0481 16.9014 19.7337 17.6234 19.7238 16.787C19.7119 15.7575 18.6674 12.6422 17.7219 10.8166C14.5533 4.69842 8.49415 0.651241 1.72726 0.132373L0 0L0.102833 3.65823ZM36.333 15.3914C34.8964 17.0977 33.7947 19.239 33.3408 21.2072C32.3591 25.4646 31.6799 27.1556 29.8467 29.9054C28.7692 31.5219 25.7496 34.757 23.9516 36.2217C23.331 36.7273 22.4702 37.6797 22.0386 38.3381L21.254 39.5349L21.1856 38.7466C21.1479 38.3129 21.1479 35.5221 21.1856 32.5447L21.254 27.1313L22.0064 25.5602C24.1786 21.024 28.1059 17.2503 32.625 15.3567C33.9481 14.8025 36.6578 13.9939 37.2847 13.9666C37.4262 13.9604 36.9981 14.6015 36.333 15.3914ZM22.538 46.9976C23.7509 49.4657 23.884 50.4101 23.2058 51.7357C22.8246 52.4807 21.914 53.3812 21.5416 53.3812C21.4484 53.3812 21.3456 51.4507 21.3132 49.0911C21.2807 46.7317 21.3001 44.8012 21.3564 44.8014C21.4128 44.8016 21.9446 45.7899 22.538 46.9976Z" fill="#010331"/>
</svg>
