<svg width="601" height="126" viewBox="0 0 601 126" fill="none" xmlns="http://www.w3.org/2000/svg">
<path d="M2.18516 104V93.3L38.2852 41.5H4.28516V29.5H55.5852V40.2L19.5852 92H56.5852V104H2.18516ZM89.8141 105.2C84.2141 105.2 79.3141 103.933 75.1141 101.4C70.9141 98.8667 67.6474 95.4333 65.3141 91.1C62.9807 86.7667 61.8141 81.9667 61.8141 76.7C61.8141 71.2333 62.9807 66.4 65.3141 62.2C67.7141 57.9333 70.9474 54.5667 75.0141 52.1C79.1474 49.6333 83.7474 48.4 88.8141 48.4C93.0807 48.4 96.8141 49.1 100.014 50.5C103.281 51.9 106.047 53.8333 108.314 56.3C110.581 58.7667 112.314 61.6 113.514 64.8C114.714 67.9333 115.314 71.3333 115.314 75C115.314 75.9333 115.247 76.9 115.114 77.9C115.047 78.9 114.881 79.7667 114.614 80.5H72.6141V70.5H107.214L101.014 75.2C101.614 72.1333 101.447 69.4 100.514 67C99.6474 64.6 98.1807 62.7 96.1141 61.3C94.1141 59.9 91.6807 59.2 88.8141 59.2C86.0807 59.2 83.6474 59.9 81.5141 61.3C79.3807 62.6333 77.7474 64.6333 76.6141 67.3C75.5474 69.9 75.1474 73.0667 75.4141 76.8C75.1474 80.1333 75.5807 83.1 76.7141 85.7C77.9141 88.2333 79.6474 90.2 81.9141 91.6C84.2474 93 86.9141 93.7 89.9141 93.7C92.9141 93.7 95.4474 93.0667 97.5141 91.8C99.6474 90.5333 101.314 88.8333 102.514 86.7L113.114 91.9C112.047 94.5 110.381 96.8 108.114 98.8C105.847 100.8 103.147 102.367 100.014 103.5C96.9474 104.633 93.5474 105.2 89.8141 105.2ZM151.845 105.2C146.511 105.2 141.645 103.967 137.245 101.5C132.911 99.0333 129.445 95.6667 126.845 91.4C124.311 87.1333 123.045 82.2667 123.045 76.8C123.045 71.3333 124.311 66.4667 126.845 62.2C129.445 57.9333 132.911 54.5667 137.245 52.1C141.578 49.6333 146.445 48.4 151.845 48.4C157.178 48.4 162.011 49.6333 166.345 52.1C170.678 54.5667 174.111 57.9333 176.645 62.2C179.245 66.4 180.545 71.2667 180.545 76.8C180.545 82.2667 179.245 87.1333 176.645 91.4C174.045 95.6667 170.578 99.0333 166.245 101.5C161.911 103.967 157.111 105.2 151.845 105.2ZM151.845 93.2C154.778 93.2 157.345 92.5 159.545 91.1C161.811 89.7 163.578 87.7667 164.845 85.3C166.178 82.7667 166.845 79.9333 166.845 76.8C166.845 73.6 166.178 70.8 164.845 68.4C163.578 65.9333 161.811 64 159.545 62.6C157.345 61.1333 154.778 60.4 151.845 60.4C148.845 60.4 146.211 61.1333 143.945 62.6C141.678 64 139.878 65.9333 138.545 68.4C137.278 70.8 136.645 73.6 136.645 76.8C136.645 79.9333 137.278 82.7667 138.545 85.3C139.878 87.7667 141.678 89.7 143.945 91.1C146.211 92.5 148.845 93.2 151.845 93.2ZM190.479 104V49.6H202.779V60.3L201.779 58.4C203.046 55.1333 205.112 52.6667 207.979 51C210.912 49.2667 214.312 48.4 218.179 48.4C222.179 48.4 225.712 49.2667 228.779 51C231.912 52.7333 234.346 55.1667 236.079 58.3C237.812 61.3667 238.679 64.9333 238.679 69V104H225.579V72.1C225.579 69.7 225.112 67.6333 224.179 65.9C223.246 64.1667 221.946 62.8333 220.279 61.9C218.679 60.9 216.779 60.4 214.579 60.4C212.446 60.4 210.546 60.9 208.879 61.9C207.212 62.8333 205.912 64.1667 204.979 65.9C204.046 67.6333 203.579 69.7 203.579 72.1V104H190.479ZM288.23 105.2C282.43 105.2 277.363 103.833 273.03 101.1C268.763 98.3 265.83 94.5333 264.23 89.8L274.03 85.1C275.43 88.1667 277.363 90.5667 279.83 92.3C282.363 94.0333 285.163 94.9 288.23 94.9C290.63 94.9 292.53 94.3667 293.93 93.3C295.33 92.2333 296.03 90.8333 296.03 89.1C296.03 88.0333 295.73 87.1667 295.13 86.5C294.596 85.7667 293.83 85.1667 292.83 84.7C291.896 84.1667 290.863 83.7333 289.73 83.4L280.83 80.9C276.23 79.5667 272.73 77.5333 270.33 74.8C267.996 72.0667 266.83 68.8333 266.83 65.1C266.83 61.7667 267.663 58.8667 269.33 56.4C271.063 53.8667 273.43 51.9 276.43 50.5C279.496 49.1 282.996 48.4 286.93 48.4C292.063 48.4 296.596 49.6333 300.53 52.1C304.463 54.5667 307.263 58.0333 308.93 62.5L298.93 67.2C297.996 64.7333 296.43 62.7667 294.23 61.3C292.03 59.8333 289.563 59.1 286.83 59.1C284.63 59.1 282.896 59.6 281.63 60.6C280.363 61.6 279.73 62.9 279.73 64.5C279.73 65.5 279.996 66.3667 280.53 67.1C281.063 67.8333 281.796 68.4333 282.73 68.9C283.73 69.3667 284.863 69.8 286.13 70.2L294.83 72.8C299.296 74.1333 302.73 76.1333 305.13 78.8C307.596 81.4667 308.83 84.7333 308.83 88.6C308.83 91.8667 307.963 94.7667 306.23 97.3C304.496 99.7667 302.096 101.7 299.03 103.1C295.963 104.5 292.363 105.2 288.23 105.2ZM343.697 104.6C337.564 104.6 332.797 102.933 329.397 99.6C326.064 96.2 324.397 91.4333 324.397 85.3V61.3H314.997V49.6H315.997C318.664 49.6 320.73 48.9 322.197 47.5C323.664 46.1 324.397 44.0667 324.397 41.4V37.2H337.497V49.6H349.997V61.3H337.497V84.6C337.497 86.4 337.797 87.9333 338.397 89.2C339.064 90.4667 340.064 91.4333 341.397 92.1C342.797 92.7667 344.564 93.1 346.697 93.1C347.164 93.1 347.697 93.0667 348.297 93C348.964 92.9333 349.597 92.8667 350.197 92.8V104C349.264 104.133 348.197 104.267 346.997 104.4C345.797 104.533 344.697 104.6 343.697 104.6ZM379.605 105.2C375.405 105.2 371.739 104.267 368.605 102.4C365.539 100.533 363.172 97.9333 361.505 94.6C359.905 91.2667 359.105 87.3667 359.105 82.9V49.6H372.205V81.8C372.205 84.0667 372.639 86.0667 373.505 87.8C374.439 89.4667 375.739 90.8 377.405 91.8C379.139 92.7333 381.072 93.2 383.205 93.2C385.339 93.2 387.239 92.7333 388.905 91.8C390.572 90.8 391.872 89.4333 392.805 87.7C393.739 85.9667 394.205 83.9 394.205 81.5V49.6H407.305V104H394.905V93.3L396.005 95.2C394.739 98.5333 392.639 101.033 389.705 102.7C386.839 104.367 383.472 105.2 379.605 105.2ZM444.783 105.2C439.516 105.2 434.816 103.967 430.683 101.5C426.549 98.9667 423.283 95.5333 420.883 91.2C418.483 86.8667 417.283 82.0667 417.283 76.8C417.283 71.4667 418.483 66.6667 420.883 62.4C423.283 58.1333 426.549 54.7333 430.683 52.2C434.883 49.6667 439.549 48.4 444.683 48.4C448.816 48.4 452.483 49.2333 455.683 50.9C458.949 52.5 461.516 54.7667 463.383 57.7L461.383 60.4V28.3H474.483V104H462.083V93.5L463.483 96.1C461.616 99.0333 459.016 101.3 455.683 102.9C452.349 104.433 448.716 105.2 444.783 105.2ZM446.183 93.2C449.183 93.2 451.816 92.5 454.083 91.1C456.349 89.7 458.116 87.7667 459.383 85.3C460.716 82.8333 461.383 80 461.383 76.8C461.383 73.6667 460.716 70.8667 459.383 68.4C458.116 65.8667 456.349 63.9 454.083 62.5C451.816 61.1 449.183 60.4 446.183 60.4C443.249 60.4 440.616 61.1333 438.283 62.6C435.949 64 434.116 65.9333 432.783 68.4C431.516 70.8 430.883 73.6 430.883 76.8C430.883 80 431.516 82.8333 432.783 85.3C434.116 87.7667 435.949 89.7 438.283 91.1C440.616 92.5 443.249 93.2 446.183 93.2ZM486.67 104V49.6H499.77V104H486.67ZM486.67 43.5V29.5H499.77V43.5H486.67ZM538.466 105.2C533.132 105.2 528.266 103.967 523.866 101.5C519.532 99.0333 516.066 95.6667 513.466 91.4C510.932 87.1333 509.666 82.2667 509.666 76.8C509.666 71.3333 510.932 66.4667 513.466 62.2C516.066 57.9333 519.532 54.5667 523.866 52.1C528.199 49.6333 533.066 48.4 538.466 48.4C543.799 48.4 548.632 49.6333 552.966 52.1C557.299 54.5667 560.732 57.9333 563.266 62.2C565.866 66.4 567.166 71.2667 567.166 76.8C567.166 82.2667 565.866 87.1333 563.266 91.4C560.666 95.6667 557.199 99.0333 552.866 101.5C548.532 103.967 543.732 105.2 538.466 105.2ZM538.466 93.2C541.399 93.2 543.966 92.5 546.166 91.1C548.432 89.7 550.199 87.7667 551.466 85.3C552.799 82.7667 553.466 79.9333 553.466 76.8C553.466 73.6 552.799 70.8 551.466 68.4C550.199 65.9333 548.432 64 546.166 62.6C543.966 61.1333 541.399 60.4 538.466 60.4C535.466 60.4 532.832 61.1333 530.566 62.6C528.299 64 526.499 65.9333 525.166 68.4C523.899 70.8 523.266 73.6 523.266 76.8C523.266 79.9333 523.899 82.7667 525.166 85.3C526.499 87.7667 528.299 89.7 530.566 91.1C532.832 92.5 535.466 93.2 538.466 93.2Z" fill="white"/>
<rect x="585" y="88" width="16" height="16" rx="8" fill="#2FBCFC"/>
</svg>
