<svg width="48" height="48" viewBox="0 0 48 48" fill="none" xmlns="http://www.w3.org/2000/svg">
<rect width="48" height="48" rx="4" fill="#F9F3FF"/>
<path d="M23.077 37.5567C23.077 38.7636 22.2309 39.2643 21.1796 38.6609L12.8975 33.8717C11.859 33.2683 11 31.7789 11 30.5848V20.9937C11 19.7867 11.859 19.2988 12.8975 19.9023L21.1796 24.6914C22.2309 25.2949 23.077 26.7715 23.077 27.9784V37.5567Z" fill="#8F4BF1"/>
<path d="M22.7286 10.669L22.7291 10.6687C23.2006 10.3947 23.8434 10.25 24.5009 10.25C25.1584 10.25 25.8012 10.3947 26.2727 10.6687L26.2732 10.669L34.5549 15.4579C34.5549 15.4579 34.555 15.458 34.5551 15.458C35.0273 15.7325 35.2093 16.0607 35.2093 16.3395C35.2093 16.6183 35.0273 16.9465 34.5551 17.221C34.555 17.2211 34.5549 17.2211 34.5549 17.2212L26.2732 22.01L26.2727 22.0103C25.8012 22.2843 25.1584 22.429 24.5009 22.429C23.8434 22.429 23.2006 22.2843 22.7291 22.0103L22.7286 22.01L14.4469 17.2212C14.4469 17.2211 14.4468 17.2211 14.4467 17.221C13.9745 16.9465 13.7925 16.6183 13.7925 16.3395C13.7925 16.0607 13.9745 15.7325 14.4467 15.458C14.4468 15.458 14.4469 15.4579 14.4469 15.4579L22.7286 10.669Z" fill="white" stroke="#883CF4" stroke-width="0.5"/>
<path d="M36.1024 19.9023C37.1409 19.2988 37.9999 19.7867 37.9999 20.9937V30.5848C37.9999 31.7789 37.1409 33.2683 36.1024 33.8717L27.8203 38.6609C26.769 39.2643 25.9229 38.7636 25.9229 37.5567V27.9784C25.9229 26.7715 26.769 25.2949 27.8203 24.6914L36.1024 19.9023Z" fill="#C1A7E9"/>
</svg>
