<svg width="34" height="33" viewBox="0 0 34 33" fill="none" xmlns="http://www.w3.org/2000/svg">
<rect x="0.5" y="0.5" width="33" height="32" rx="4" fill="#F6FBFB"/>
<g clip-path="url(#clip0_343_37931)">
<path d="M13.4557 16.5V17.9545H12.0391V16.5H13.4557Z" fill="black"/>
<path d="M16.2917 16.5H14.875V17.9545H16.2917V16.5Z" fill="black"/>
<path d="M17.7109 16.5H19.1276V17.9545H17.7109V16.5Z" fill="black"/>
<path d="M21.9557 17.9545V16.5H20.5391V17.9545H21.9557Z" fill="black"/>
<path d="M13.4557 19.4102V20.8647H12.0391V19.4102H13.4557Z" fill="black"/>
<path d="M16.2917 19.4082H14.875V20.8627H16.2917V19.4082Z" fill="black"/>
<path d="M17.7109 19.4102H19.1276V20.8647H17.7109V19.4102Z" fill="black"/>
<path d="M21.9557 20.8647V19.4102H20.5391V20.8647H21.9557Z" fill="black"/>
<path fill-rule="evenodd" clip-rule="evenodd" d="M13.4583 9.22727C13.4583 8.82561 13.1412 8.5 12.75 8.5C12.3588 8.5 12.0417 8.82561 12.0417 9.22727V9.95455H10.625C9.4514 9.95455 8.5 10.9314 8.5 12.1364V22.3182C8.5 22.3935 8.50372 22.4679 8.51097 22.5412C8.61979 23.6415 9.52475 24.5 10.625 24.5H23.375C24.5486 24.5 25.5 23.5232 25.5 22.3182V12.1364C25.5 10.9314 24.5486 9.95455 23.375 9.95455H22.6667V9.22727C22.6667 8.82561 22.3495 8.5 21.9583 8.5C21.5671 8.5 21.25 8.82561 21.25 9.22727V9.95455H13.4583V9.22727ZM24.0833 12.8636V12.1364C24.0833 11.7347 23.7662 11.4091 23.375 11.4091H10.625C10.2338 11.4091 9.91667 11.7347 9.91667 12.1364V12.8636H24.0833ZM9.91667 14.3182V22.3182C9.91667 22.7199 10.2338 23.0455 10.625 23.0455H23.375C23.7647 23.0455 24.0809 22.7224 24.0833 22.3229V22.3182V14.3182H9.91667Z" fill="black"/>
</g>
<defs>
<clipPath id="clip0_343_37931">
<rect width="17" height="16" fill="white" transform="translate(8.5 8.5)"/>
</clipPath>
</defs>
</svg>
