<svg width="22" height="22" viewBox="0 0 22 22" fill="none" xmlns="http://www.w3.org/2000/svg">
<path d="M18.5099 10.0231C18.8658 10.4551 19.0437 10.6711 19.0437 11C19.0437 11.3289 18.8658 11.5449 18.5099 11.9769C17.2082 13.5574 14.337 16.5 11.0043 16.5C7.67151 16.5 4.80031 13.5574 3.49856 11.9769C3.14275 11.5449 2.96484 11.3289 2.96484 11C2.96484 10.6711 3.14275 10.4551 3.49856 10.0231C4.80031 8.44263 7.67151 5.5 11.0043 5.5C14.337 5.5 17.2082 8.44263 18.5099 10.0231Z" fill="#152C48" fill-opacity="0.15"/>
<path d="M11 13.0625C12.1391 13.0625 13.0625 12.1391 13.0625 11C13.0625 9.86091 12.1391 8.9375 11 8.9375C9.86091 8.9375 8.9375 9.86091 8.9375 11C8.9375 12.1391 9.86091 13.0625 11 13.0625Z" fill="#152C48"/>
</svg>
