<svg width="22" height="22" viewBox="0 0 22 22" fill="none" xmlns="http://www.w3.org/2000/svg">
<path d="M2.75 9.16635C2.75 5.70937 2.75 3.9809 3.82394 2.90695C4.89789 1.83301 6.62636 1.83301 10.0833 1.83301H11.9167C15.3736 1.83301 17.1022 1.83301 18.176 2.90695C19.25 3.9809 19.25 5.70937 19.25 9.16635V12.833C19.25 16.2899 19.25 18.0185 18.176 19.0924C17.1022 20.1664 15.3736 20.1664 11.9167 20.1664H10.0833C6.62636 20.1664 4.89789 20.1664 3.82394 19.0924C2.75 18.0185 2.75 16.2899 2.75 12.833V9.16635Z" fill="#152C48" fill-opacity="0.15"/>
<path fill-rule="evenodd" clip-rule="evenodd" d="M6.64062 9.16602C6.64062 8.78632 6.94843 8.47852 7.32813 8.47852H14.6615C15.0411 8.47852 15.349 8.78632 15.349 9.16602C15.349 9.5457 15.0411 9.85352 14.6615 9.85352H7.32813C6.94843 9.85352 6.64062 9.5457 6.64062 9.16602Z" fill="#152C48"/>
<path fill-rule="evenodd" clip-rule="evenodd" d="M6.64062 12.833C6.64062 12.4533 6.94843 12.1455 7.32813 12.1455H11.9115C12.2911 12.1455 12.599 12.4533 12.599 12.833C12.599 13.2127 12.2911 13.5205 11.9115 13.5205H7.32813C6.94843 13.5205 6.64062 13.2127 6.64062 12.833Z" fill="#152C48"/>
</svg>
