<svg width="22" height="22" viewBox="0 0 22 22" fill="none" xmlns="http://www.w3.org/2000/svg">
<path d="M1.82812 10.9997C1.82812 6.67846 1.82812 4.51786 3.17056 3.17544C4.51298 1.83301 6.67358 1.83301 10.9948 1.83301C15.316 1.83301 17.4766 1.83301 18.819 3.17544C20.1615 4.51786 20.1615 6.67846 20.1615 10.9997C20.1615 15.3208 20.1615 17.4815 18.819 18.8239C17.4766 20.1663 15.316 20.1663 10.9948 20.1663C6.67358 20.1663 4.51298 20.1663 3.17056 18.8239C1.82812 17.4815 1.82812 15.3208 1.82812 10.9997Z" fill="#152C48" fill-opacity="0.15"/>
<path d="M11.6188 7.42096C11.6188 7.11944 11.3417 6.875 11 6.875C10.6583 6.875 10.3813 7.11944 10.3813 7.42096V11.1985L8.96252 9.94669C8.72089 9.73348 8.32911 9.73348 8.08748 9.94669C7.84584 10.1599 7.84584 10.5055 8.08748 10.7187L10.5625 12.9026C10.6785 13.005 10.8359 13.0625 11 13.0625C11.1641 13.0625 11.3215 13.005 11.4375 12.9026L13.9125 10.7187C14.1542 10.5055 14.1542 10.1599 13.9125 9.94669C13.6709 9.73348 13.2792 9.73348 13.0375 9.94669L11.6188 11.1985V7.42096Z" fill="#152C48"/>
<path d="M8.39474 14.4375C8.12496 14.4375 7.90625 14.6684 7.90625 14.9531C7.90625 15.2379 8.12496 15.4688 8.39474 15.4688H13.6053C13.875 15.4688 14.0938 15.2379 14.0938 14.9531C14.0938 14.6684 13.875 14.4375 13.6053 14.4375H8.39474Z" fill="#152C48"/>
</svg>
