<svg width="160" height="133" viewBox="0 0 160 133" fill="none" xmlns="http://www.w3.org/2000/svg">
<mask id="mask0_1_1790" style="mask-type:luminance" maskUnits="userSpaceOnUse" x="0" y="0" width="160" height="133">
<path d="M160 0H0V133H160V0Z" fill="white"/>
</mask>
<g mask="url(#mask0_1_1790)">
<path d="M79.998 129.467C115.344 129.467 143.998 100.813 143.998 65.4668C143.998 30.1207 115.344 1.4668 79.998 1.4668C44.6519 1.4668 15.998 30.1207 15.998 65.4668C15.998 100.813 44.6519 129.467 79.998 129.467Z" fill="url(#paint0_linear_1_1790)"/>
<path d="M55.9962 19.8967H105.349C110.062 19.8967 113.883 23.717 113.883 28.4301V94.0455C113.883 98.7586 110.062 102.579 105.349 102.579H55.9962C51.2832 102.579 47.4629 98.7586 47.4629 94.0455V28.4301C47.4629 23.717 51.2832 19.8967 55.9962 19.8967Z" fill="white"/>
<path d="M55.9454 30.5635H77.3854C78.8286 30.5635 79.9987 31.7336 79.9987 33.1768C79.9987 34.62 78.8286 35.7901 77.3854 35.7901H55.9454C54.5022 35.7901 53.332 34.62 53.332 33.1768C53.332 31.7336 54.5022 30.5635 55.9454 30.5635Z" fill="#011625"/>
<path d="M55.9454 45.3899H104.052C105.495 45.3899 106.665 46.56 106.665 48.0032C106.665 49.4464 105.495 50.6166 104.052 50.6166H55.9454C54.5022 50.6166 53.332 49.4464 53.332 48.0032C53.332 46.56 54.5022 45.3899 55.9454 45.3899Z" fill="#D5D5D5"/>
<path d="M55.9454 60.2166H104.052C105.495 60.2166 106.665 61.3867 106.665 62.8299C106.665 64.2731 105.495 65.4432 104.052 65.4432H55.9454C54.5022 65.4432 53.332 64.2731 53.332 62.8299C53.332 61.3867 54.5022 60.2166 55.9454 60.2166Z" fill="#D5D5D5"/>
<path d="M55.9454 75.0435H104.052C105.495 75.0435 106.665 76.2136 106.665 77.6568C106.665 79.1 105.495 80.2701 104.052 80.2701H55.9454C54.5022 80.2701 53.332 79.1 53.332 77.6568C53.332 76.2136 54.5022 75.0435 55.9454 75.0435Z" fill="#D5D5D5"/>
<path d="M55.9454 89.8701H104.052C105.495 89.8701 106.665 91.0402 106.665 92.4834C106.665 93.9266 105.495 95.0968 104.052 95.0968H55.9454C54.5022 95.0968 53.332 93.9266 53.332 92.4834C53.332 91.0402 54.5022 89.8701 55.9454 89.8701Z" fill="#D5D5D5"/>
<path d="M153.676 10.7595H121.633C120.14 10.7595 118.93 12.0337 118.93 13.6049V29.455C118.93 31.0262 120.14 32.3003 121.633 32.3003H153.676C155.17 32.3003 156.38 31.0262 156.38 29.455V13.6049C156.38 12.0337 155.17 10.7595 153.676 10.7595Z" fill="white"/>
<path d="M126.93 24.9334C128.698 24.9334 130.13 23.5009 130.13 21.7334C130.13 19.966 128.698 18.5334 126.93 18.5334C125.163 18.5334 123.73 19.966 123.73 21.7334C123.73 23.5009 125.163 24.9334 126.93 24.9334Z" fill="#CCC6D9"/>
<path d="M137.598 18.5334H148.265C150.033 18.5334 151.465 19.966 151.465 21.7334C151.465 23.5009 150.033 24.9334 148.265 24.9334H137.598C135.831 24.9334 134.398 23.5009 134.398 21.7334C134.398 19.966 135.831 18.5334 137.598 18.5334Z" fill="#D5D5D5"/>
<path fill-rule="evenodd" clip-rule="evenodd" d="M98.722 106.3C105.591 106.3 111.975 104.223 117.279 100.661L138.985 121.382L146.858 112.248L125.912 92.2541C129.781 86.8098 132.055 80.1543 132.055 72.9671C132.055 54.5575 117.131 39.6338 98.722 39.6338C80.3124 39.6338 65.3887 54.5575 65.3887 72.9671C65.3887 91.3767 80.3124 106.3 98.722 106.3ZM127.153 72.9671C127.153 88.5527 114.518 101.188 98.9327 101.188C83.3471 101.188 70.7124 88.5527 70.7124 72.9671C70.7124 57.3815 83.3471 44.7469 98.9327 44.7469C114.518 44.7469 127.153 57.3815 127.153 72.9671Z" fill="#5CC5C0"/>
<path d="M98.9299 101.734C114.983 101.734 127.997 88.8391 127.997 72.9335C127.997 57.0279 114.983 44.1335 98.9299 44.1335C82.8766 44.1335 69.8633 57.0279 69.8633 72.9335C69.8633 88.8391 82.8766 101.734 98.9299 101.734Z" fill="white" fill-opacity="0.3"/>
<path d="M103.957 72.9335L110.992 65.9266C111.651 65.2332 112.012 64.3122 111.998 63.3586C111.985 62.405 111.597 61.4946 110.919 60.8199C110.241 60.1458 109.324 59.7607 108.365 59.7474C107.405 59.734 106.479 60.0924 105.781 60.7474L98.7313 67.7543L91.6972 60.7474C91.3585 60.3916 90.9516 60.1068 90.5004 59.9095C90.0492 59.7127 89.5628 59.6076 89.07 59.6007C88.5772 59.5938 88.0881 59.685 87.6316 59.869C87.1751 60.0535 86.7601 60.3266 86.4113 60.6732C86.0631 61.0194 85.7879 61.4316 85.6028 61.8855C85.4172 62.3394 85.3255 62.8258 85.3324 63.3159C85.3393 63.8055 85.4449 64.2887 85.6433 64.7372C85.8412 65.1858 86.1281 65.59 86.4865 65.9266L93.5324 72.9335L86.4865 79.9404C86.1281 80.277 85.8412 80.6812 85.6433 81.1298C85.4449 81.5783 85.3393 82.0615 85.3324 82.5511C85.3255 83.0412 85.4172 83.5271 85.6028 83.9815C85.7879 84.4354 86.0631 84.8476 86.4113 85.1938C86.7601 85.5399 87.1751 85.8135 87.6316 85.998C88.0881 86.182 88.5772 86.2732 89.07 86.2663C89.5628 86.2594 90.0492 86.1543 90.5004 85.9575C90.9516 85.7602 91.3585 85.4754 91.6972 85.1196L98.7468 78.1127L105.797 85.1196C106.501 85.7356 107.415 86.062 108.353 86.0316C109.29 86.0018 110.181 85.6172 110.843 84.957C111.506 84.2962 111.89 83.4098 111.917 82.478C111.945 81.5458 111.614 80.638 110.992 79.9404L103.957 72.9335Z" fill="#898989"/>
<path d="M138.984 121.383L146.857 112.249L148.042 113.381C149.193 114.479 149.881 116.013 149.957 117.646C150.033 119.279 149.489 120.876 148.446 122.087C147.402 123.298 145.944 124.022 144.393 124.102C142.841 124.181 141.324 123.609 140.173 122.511L138.988 121.379L138.984 121.383Z" fill="#28A19C"/>
<path fill-rule="evenodd" clip-rule="evenodd" d="M30.031 34.6252C30.0214 33.8647 29.9259 33.0972 29.735 32.3249C29.0657 29.6145 26.0801 27.8743 22.9025 27.4652C19.7265 27.0561 16.423 27.9873 15.1499 30.3452C14.4219 31.6929 14.3217 32.8545 14.6193 33.8343C14.9153 34.8087 15.6182 35.6161 16.5723 36.246C19.2326 37.9991 23.8918 38.3569 26.0177 37.6241C27.0006 37.2844 27.9611 36.8753 28.8961 36.4071C28.3617 39.4716 26.3691 42.3745 23.7099 44.9905C17.9307 50.6764 8.96327 54.9921 4.07953 56.5788C3.81713 56.6641 3.67153 56.9548 3.75313 57.2289C3.83473 57.5031 4.11367 57.6567 4.37607 57.5713C9.35633 55.9532 18.4987 51.5457 24.3921 45.7473C27.4369 42.7527 29.6059 39.3809 29.9766 35.8364C36.8593 31.9959 42.511 25.0279 47.3435 19.1633C47.5233 18.9473 47.4993 18.6183 47.2907 18.4305C47.0822 18.2444 46.7686 18.2679 46.5889 18.4855C41.9531 24.11 36.5734 30.8001 30.031 34.6252ZM29.0305 35.1825C29.0683 34.3276 28.9878 33.4593 28.7707 32.5836C28.1921 30.2375 25.5318 28.8503 22.7809 28.4961C21.095 28.2796 19.3611 28.4583 18.0011 29.0929C17.1462 29.4913 16.4422 30.0695 16.0177 30.8561C15.4603 31.8881 15.3398 32.7708 15.5681 33.5196C15.7969 34.2737 16.3643 34.8796 17.1035 35.366C19.5281 36.9644 23.7702 37.3041 25.7051 36.6364C26.8459 36.2433 27.9537 35.7527 29.0305 35.1825Z" fill="#011625"/>
<path d="M151.997 87.3334C153.764 87.3334 155.197 85.9007 155.197 84.1333C155.197 82.366 153.764 80.9333 151.997 80.9333C150.23 80.9333 148.797 82.366 148.797 84.1333C148.797 85.9007 150.23 87.3334 151.997 87.3334Z" fill="#417BA4"/>
<path fill-rule="evenodd" clip-rule="evenodd" d="M31.136 106.21C31.7072 105.996 32.3083 105.711 32.7718 105.299C33.3222 104.81 33.5462 104.18 33.696 103.516C33.8891 102.663 33.9664 101.756 34.2006 100.902C34.287 100.585 34.4539 100.465 34.5254 100.412C34.7062 100.277 34.8891 100.241 35.0608 100.255C35.2646 100.27 35.5446 100.351 35.7291 100.711C35.7552 100.763 35.7894 100.841 35.8123 100.948C35.8288 101.027 35.84 101.273 35.8576 101.375C35.9019 101.625 35.9387 101.875 35.9739 102.126C36.0896 102.963 36.1563 103.674 36.5222 104.443C37.0187 105.487 37.5163 106.125 38.191 106.409C38.8438 106.682 39.6235 106.63 40.6203 106.416C40.7152 106.392 40.8091 106.371 40.9019 106.354C41.3414 106.274 41.7616 106.577 41.848 107.038C41.9344 107.498 41.655 107.947 41.2192 108.048C41.1286 108.069 41.039 108.089 40.9504 108.108C39.6032 108.459 38.0438 109.711 37.1376 110.807C36.8587 111.146 36.4496 112.091 36.0326 112.694C35.7248 113.139 35.3787 113.432 35.088 113.536C34.8934 113.606 34.7296 113.595 34.5942 113.559C34.3968 113.509 34.2336 113.396 34.1083 113.218C34.04 113.12 33.9766 112.989 33.9462 112.822C33.9318 112.741 33.9302 112.537 33.9307 112.444C33.8454 112.137 33.7414 111.836 33.6656 111.525C33.4848 110.785 33.1302 110.316 32.7088 109.696C32.3147 109.116 31.8912 108.752 31.2704 108.461C31.1899 108.44 30.5382 108.272 30.3083 108.176C29.9723 108.035 29.8118 107.798 29.7536 107.67C29.655 107.454 29.6448 107.266 29.6646 107.108C29.6939 106.875 29.7931 106.676 29.9691 106.516C30.0779 106.416 30.2406 106.319 30.4587 106.271C30.6267 106.235 31.0736 106.213 31.136 106.21ZM34.9584 105.003C34.9883 105.074 35.0208 105.145 35.055 105.217C35.7819 106.745 36.5952 107.599 37.584 108.013L37.6171 108.026C36.9558 108.543 36.3568 109.121 35.8998 109.674C35.711 109.902 35.4619 110.376 35.192 110.861C34.9472 110.024 34.5472 109.432 34.0438 108.691C33.6587 108.125 33.256 107.7 32.7606 107.353C33.1451 107.146 33.5115 106.902 33.831 106.619C34.3627 106.146 34.7142 105.598 34.9584 105.003Z" fill="#417BA4"/>
</g>
<defs>
<linearGradient id="paint0_linear_1_1790" x1="79.5032" y1="-19.3731" x2="80.8142" y2="205.385" gradientUnits="userSpaceOnUse">
<stop stop-color="#F2F2F2"/>
<stop offset="1" stop-color="#EFEFEF"/>
</linearGradient>
</defs>
</svg>
