<svg width="16" height="16" viewBox="0 0 16 16" fill="none" xmlns="http://www.w3.org/2000/svg">
<path d="M5.99935 3.33326C5.82254 3.33326 5.65297 3.4035 5.52794 3.52852C5.40292 3.65354 5.33268 3.82311 5.33268 3.99992C5.33268 4.17674 5.40292 4.3463 5.52794 4.47133C5.65297 4.59635 5.82254 4.66659 5.99935 4.66659C6.17616 4.66659 6.34573 4.59635 6.47075 4.47133C6.59578 4.3463 6.66602 4.17674 6.66602 3.99992C6.66602 3.82311 6.59578 3.65354 6.47075 3.52852C6.34573 3.4035 6.17616 3.33326 5.99935 3.33326ZM4.11268 3.33326C4.25042 2.9429 4.50584 2.60488 4.84375 2.36578C5.18166 2.12669 5.58541 1.99829 5.99935 1.99829C6.41329 1.99829 6.81704 2.12669 7.15495 2.36578C7.49286 2.60488 7.74828 2.9429 7.88602 3.33326H12.666C12.8428 3.33326 13.0124 3.4035 13.1374 3.52852C13.2624 3.65354 13.3327 3.82311 13.3327 3.99992C13.3327 4.17674 13.2624 4.3463 13.1374 4.47133C13.0124 4.59635 12.8428 4.66659 12.666 4.66659H7.88602C7.74828 5.05695 7.49286 5.39497 7.15495 5.63407C6.81704 5.87316 6.41329 6.00156 5.99935 6.00156C5.58541 6.00156 5.18166 5.87316 4.84375 5.63407C4.50584 5.39497 4.25042 5.05695 4.11268 4.66659H3.33268C3.15587 4.66659 2.9863 4.59635 2.86128 4.47133C2.73625 4.3463 2.66602 4.17674 2.66602 3.99992C2.66602 3.82311 2.73625 3.65354 2.86128 3.52852C2.9863 3.4035 3.15587 3.33326 3.33268 3.33326H4.11268ZM9.99935 7.33326C9.82254 7.33326 9.65297 7.4035 9.52794 7.52852C9.40292 7.65354 9.33268 7.82311 9.33268 7.99993C9.33268 8.17674 9.40292 8.3463 9.52794 8.47133C9.65297 8.59635 9.82254 8.66659 9.99935 8.66659C10.1762 8.66659 10.3457 8.59635 10.4708 8.47133C10.5958 8.3463 10.666 8.17674 10.666 7.99993C10.666 7.82311 10.5958 7.65354 10.4708 7.52852C10.3457 7.4035 10.1762 7.33326 9.99935 7.33326ZM8.11268 7.33326C8.25042 6.9429 8.50584 6.60488 8.84375 6.36578C9.18166 6.12669 9.58541 5.99829 9.99935 5.99829C10.4133 5.99829 10.817 6.12669 11.1549 6.36578C11.4929 6.60488 11.7483 6.9429 11.886 7.33326H12.666C12.8428 7.33326 13.0124 7.4035 13.1374 7.52852C13.2624 7.65354 13.3327 7.82311 13.3327 7.99993C13.3327 8.17674 13.2624 8.3463 13.1374 8.47133C13.0124 8.59635 12.8428 8.66659 12.666 8.66659H11.886C11.7483 9.05695 11.4929 9.39497 11.1549 9.63407C10.817 9.87316 10.4133 10.0016 9.99935 10.0016C9.58541 10.0016 9.18166 9.87316 8.84375 9.63407C8.50584 9.39497 8.25042 9.05695 8.11268 8.66659H3.33268C3.15587 8.66659 2.9863 8.59635 2.86128 8.47133C2.73625 8.3463 2.66602 8.17674 2.66602 7.99993C2.66602 7.82311 2.73625 7.65354 2.86128 7.52852C2.9863 7.4035 3.15587 7.33326 3.33268 7.33326H8.11268ZM5.99935 11.3333C5.82254 11.3333 5.65297 11.4035 5.52794 11.5285C5.40292 11.6535 5.33268 11.8231 5.33268 11.9999C5.33268 12.1767 5.40292 12.3463 5.52794 12.4713C5.65297 12.5964 5.82254 12.6666 5.99935 12.6666C6.17616 12.6666 6.34573 12.5964 6.47075 12.4713C6.59578 12.3463 6.66602 12.1767 6.66602 11.9999C6.66602 11.8231 6.59578 11.6535 6.47075 11.5285C6.34573 11.4035 6.17616 11.3333 5.99935 11.3333ZM4.11268 11.3333C4.25042 10.9429 4.50584 10.6049 4.84375 10.3658C5.18166 10.1267 5.58541 9.99829 5.99935 9.99829C6.41329 9.99829 6.81704 10.1267 7.15495 10.3658C7.49286 10.6049 7.74828 10.9429 7.88602 11.3333H12.666C12.8428 11.3333 13.0124 11.4035 13.1374 11.5285C13.2624 11.6535 13.3327 11.8231 13.3327 11.9999C13.3327 12.1767 13.2624 12.3463 13.1374 12.4713C13.0124 12.5964 12.8428 12.6666 12.666 12.6666H7.88602C7.74828 13.0569 7.49286 13.395 7.15495 13.6341C6.81704 13.8732 6.41329 14.0016 5.99935 14.0016C5.58541 14.0016 5.18166 13.8732 4.84375 13.6341C4.50584 13.395 4.25042 13.0569 4.11268 12.6666H3.33268C3.15587 12.6666 2.9863 12.5964 2.86128 12.4713C2.73625 12.3463 2.66602 12.1767 2.66602 11.9999C2.66602 11.8231 2.73625 11.6535 2.86128 11.5285C2.9863 11.4035 3.15587 11.3333 3.33268 11.3333H4.11268Z" fill="black"/>
</svg>
