<svg width="56" height="56" viewBox="0 0 56 56" fill="none" xmlns="http://www.w3.org/2000/svg">
<path d="M52.4621 26.6144H45.4228C45.5879 25.5589 45.699 24.4854 45.699 23.3837C45.699 11.6385 35.9608 1.8028 23.8176 2.17115C23.557 2.17891 23.2937 2.17707 23.0406 2.2006V2.17904C9.69071 2.17904 1.08203 12.3137 1.08203 23.3837C1.08203 35.4939 11.2899 45.1122 23.0406 44.5775V44.556C24.0392 44.6488 25.4358 44.6079 26.4881 44.5072C26.8218 44.4754 27.5955 44.3511 27.7037 44.3358V51.3729C27.7037 52.7298 28.8022 53.8391 30.159 53.8391H52.4621C53.8191 53.8391 54.9175 52.7298 54.9175 51.3729V29.0698C54.9175 27.7129 53.8191 26.6144 52.4621 26.6144ZM19.5441 4.41058C18.1479 5.77908 16.9333 7.71122 15.9749 10.0784C14.7302 9.48028 13.5403 8.7633 12.4402 7.90775C14.5097 6.29677 16.6803 5.15241 19.5441 4.41058ZM11.1997 8.96239C12.5037 10.0095 13.9102 10.9063 15.4073 11.6122C14.3583 14.7526 13.7343 18.4998 13.6595 22.5714H4.88176C5.10327 17.1931 7.48862 12.3779 11.1997 8.96239ZM4.88124 24.1868H13.6595C13.7343 28.2567 14.3578 32.0025 15.4061 35.1423C13.9095 35.8493 12.5036 36.7475 11.2008 37.7962C7.48704 34.3801 5.10077 29.5637 4.88124 24.1868ZM12.4407 38.85C13.5397 37.9931 14.7289 37.275 15.9735 36.6761C16.9312 39.0433 18.1453 40.976 19.5406 42.3452C16.8516 41.6474 14.6627 40.5786 12.4407 38.85ZM23.6535 42.9069C21.2207 42.4309 19.0286 39.8378 17.4933 36.022C19.4526 35.2759 21.5296 34.8468 23.6535 34.7593V42.9069ZM23.6535 33.1464C21.3393 33.2345 19.0708 33.6849 16.9354 34.4955C15.9532 31.5223 15.3514 27.974 15.2748 24.1868H23.6535V33.1464ZM23.6535 22.5714H15.2748C15.3514 18.7822 15.9539 15.2324 16.9372 12.2582C19.0729 13.0676 21.3406 13.5174 23.6535 13.6055V22.5714ZM23.6535 11.9926C21.5312 11.9051 19.4549 11.4766 17.4954 10.7317C19.0308 6.91911 21.2218 4.32809 23.6535 3.85227V11.9926ZM49.7806 29.7268C50.2222 29.7268 50.5883 30.0822 50.5883 30.5344C50.5883 30.976 50.2222 31.3421 49.7806 31.3421H32.8406C32.3883 31.3421 32.0329 30.976 32.0329 30.5344C32.0329 30.0822 32.3883 29.7268 32.8406 29.7268H49.7806ZM43.7581 26.6144H35.1381C35.1994 25.8186 35.2478 25.0133 35.2629 24.1868H44.0429C44.0091 25.014 43.8976 25.819 43.7581 26.6144ZM44.0425 22.5714H35.2629C35.1881 18.5004 34.5642 14.7536 33.5155 11.6134C35.0126 10.9072 36.418 10.0101 37.72 8.96226C41.4325 12.3778 43.8206 17.1931 44.0425 22.5714ZM36.48 7.90821C35.3817 8.76422 34.1927 9.4816 32.948 10.0798C31.9897 7.71234 30.775 5.77987 29.379 4.41117C32.2515 5.15688 34.3907 6.28126 36.48 7.90821ZM25.2689 3.85227C27.7009 4.32815 29.8921 6.9197 31.4275 10.733C29.4696 11.477 27.3933 11.9049 25.2689 11.9925V3.85227ZM25.2689 13.6054C27.5839 13.5172 29.8519 13.068 31.9857 12.2596C32.9687 15.2334 33.571 18.7829 33.6477 22.5714H25.2689V13.6054ZM27.7037 41.6599C26.9324 42.3047 26.1168 42.741 25.2689 42.9069V34.7593C26.0908 34.7932 26.9008 34.8981 27.7037 35.0344V41.6599ZM27.7037 29.0698V33.3948C26.8995 33.2718 26.0891 33.1777 25.2689 33.1464V24.1868H33.6477C33.6311 25.0123 33.5759 25.8175 33.5075 26.6144H30.159C28.8022 26.6144 27.7037 27.7129 27.7037 29.0698ZM53.3022 51.3729C53.3022 51.8359 52.9253 52.2237 52.4621 52.2237H30.159C29.696 52.2237 29.3191 51.8359 29.3191 51.3729V34.4545H53.3022V51.3729Z" fill="#4EA8B9"/>
<path d="M35.8485 47.6403C37.6102 47.6403 40.1215 45.553 41.3093 44.4665C42.4972 45.553 45.0085 47.6403 46.7702 47.6403C49.1323 47.6403 51.0542 45.7178 51.0542 43.3558C51.0542 40.9937 49.1323 39.0723 46.7702 39.0723C45.0085 39.0723 42.4972 41.1589 41.3093 42.2451C40.1215 41.1589 37.6102 39.0723 35.8485 39.0723C33.4864 39.0723 31.5645 40.9937 31.5645 43.3558C31.5645 45.7178 33.4864 47.6403 35.8485 47.6403ZM46.7702 40.6877C48.2415 40.6877 49.4389 41.8845 49.4389 43.3558C49.4389 44.8271 48.2415 46.0249 46.7702 46.0249C45.8253 46.0249 43.8865 44.6094 42.4904 43.3558C43.8854 42.1022 45.8237 40.6877 46.7702 40.6877ZM35.8485 40.6877C36.7934 40.6877 38.7317 42.1022 40.1278 43.3558C38.7317 44.6094 36.7934 46.0249 35.8485 46.0249C34.3772 46.0249 33.1798 44.8271 33.1798 43.3558C33.1798 41.8845 34.3772 40.6877 35.8485 40.6877Z" fill="#4EA8B9"/>
</svg>
