<svg width="431" height="133" viewBox="0 0 431 133" fill="none" xmlns="http://www.w3.org/2000/svg">
<mask id="mask0_701_4" style="mask-type:luminance" maskUnits="userSpaceOnUse" x="0" y="0" width="431" height="133">
<path d="M430.9 0H0V132.6H430.9V0Z" fill="white"/>
</mask>
<g mask="url(#mask0_701_4)">
<path d="M0 68.1V64.5C4.4 64.5 8.7 62.8 11.8 59.6C14.9 56.5 16.7 52.3 16.7 47.9H20C20 52.3 21.8 56.5 24.9 59.6C28 62.7 32.3 64.5 36.7 64.5V68.1C32.3 68.1 28 69.8 24.9 73C21.8 76.1 20 80.3 20 84.7H16.7C16.7 80.3 14.9 76.1 11.8 73C8.6 69.9 4.4 68.1 0 68.1ZM16.7 41.7H45.4C59.4 41.7 69.4 51.6 69.4 66.2C69.4 80.8 59.4 90.7 45.4 90.7H16.7V132.5H28.7V101.3H45.4C65.6 101.3 81.5 85.5 81.5 66.2C81.5 46.8 65.6 31.1 45.4 31.1H16.7V41.7ZM124.6 31C135.1 31 144.5 36.3 150.4 44.7V33.2H162.4V99.5H150.4V87.9C144.4 96.3 135 101.6 124.6 101.6C104.8 101.6 88.1 86.1 88.1 66.3C88.1 46.5 104.8 31 124.6 31ZM124.6 90.9C140.1 90.9 150.4 80.3 150.4 66.2C150.4 52 140.3 41.5 124.6 41.5C110.7 41.5 100.2 51.4 100.2 66.2C100.1 81 110.7 90.9 124.6 90.9ZM206.8 31C217.4 31 226.7 36.3 232.6 44.7V0H244.6V99.4H232.6V87.9C226.7 96.3 217.4 101.6 206.8 101.6C187 101.6 170.3 86.1 170.3 66.3C170.4 46.5 187 31 206.8 31ZM206.8 90.9C222.4 90.9 232.6 80.4 232.6 66.2C232.6 52 222.4 41.5 206.8 41.5C192.9 41.5 182.4 51.4 182.4 66.2C182.4 81 192.9 90.9 206.8 90.9ZM290.4 31C301 31 310.3 36.3 316.2 44.7V0H328.2V99.4H316.2V87.9C310.3 96.3 301 101.6 290.4 101.6C270.6 101.6 253.9 86.1 253.9 66.3C254 46.5 270.6 31 290.4 31ZM290.4 90.9C306 90.9 316.2 80.4 316.2 66.2C316.2 52 306 41.5 290.4 41.5C276.5 41.5 266 51.4 266 66.2C266 81 276.5 90.9 290.4 90.9ZM340.2 99.4V0H352.2V99.4H340.2ZM396.7 31.1C419.8 31.1 430.9 49 430.9 70.9H373.2C375.1 83.8 384.7 92.1 396.7 92.1C405 92.1 411.4 88.4 416.2 81.1H429.2C424.7 91.3 412.8 101.4 396.8 101.4C376.6 101.4 361 85.4 361 66.3C360.9 47.2 376.5 31.1 396.7 31.1ZM418.9 61.6C418.9 50.7 409.6 40.4 396.7 40.4C384.7 40.4 375.1 48.8 373.2 61.6H418.9Z" fill="black"/>
</g>
</svg>
