<svg width="14" height="18" viewBox="0 0 14 18" fill="none" xmlns="http://www.w3.org/2000/svg">
<path d="M2.00261 17.833C1.54427 17.833 1.15177 17.6697 0.825105 17.343C0.498439 17.0163 0.335383 16.6241 0.335939 16.1663V7.83301C0.335939 7.37468 0.499272 6.98218 0.825939 6.65551C1.15261 6.32884 1.54483 6.16579 2.00261 6.16634H2.83594V4.49968C2.83594 3.3469 3.24233 2.36412 4.05511 1.55134C4.86788 0.738564 5.85038 0.332453 7.00261 0.333008C8.15538 0.333008 9.13816 0.739397 9.95094 1.55218C10.7637 2.36495 11.1698 3.34745 11.1693 4.49968V6.16634H12.0026C12.4609 6.16634 12.8534 6.32968 13.1801 6.65634C13.5068 6.98301 13.6698 7.37523 13.6693 7.83301V16.1663C13.6693 16.6247 13.5059 17.0172 13.1793 17.3438C12.8526 17.6705 12.4604 17.8336 12.0026 17.833H2.00261ZM2.00261 16.1663H12.0026V7.83301H2.00261V16.1663ZM7.00261 13.6663C7.46094 13.6663 7.85344 13.503 8.18011 13.1763C8.50677 12.8497 8.66983 12.4575 8.66927 11.9997C8.66927 11.5413 8.50594 11.1488 8.17927 10.8222C7.85261 10.4955 7.46038 10.3325 7.00261 10.333C6.54427 10.333 6.15177 10.4963 5.82511 10.823C5.49844 11.1497 5.33538 11.5419 5.33594 11.9997C5.33594 12.458 5.49927 12.8505 5.82594 13.1772C6.15261 13.5038 6.54483 13.6669 7.00261 13.6663ZM4.50261 6.16634H9.50261V4.49968C9.50261 3.80523 9.25955 3.21495 8.77344 2.72884C8.28733 2.24273 7.69705 1.99968 7.00261 1.99968C6.30816 1.99968 5.71788 2.24273 5.23177 2.72884C4.74566 3.21495 4.50261 3.80523 4.50261 4.49968V6.16634Z" fill="#17C762"/>
</svg>
