<svg width="32" height="32" viewBox="0 0 32 32" fill="none" xmlns="http://www.w3.org/2000/svg">
<rect width="32" height="32" rx="4" fill="#F6FBFB"/>
<path d="M14.9062 8.825C14.7438 9.28125 14.5875 9.68125 14.5625 9.70625C14.5375 9.7375 14.2938 9.8375 14.0188 9.93125C13.7375 10.025 13.3 10.225 13.0312 10.3687L12.55 10.6375L11.7375 10.25C11.2938 10.0375 10.9062 9.875 10.875 9.8875C10.8438 9.9 10.5812 10.125 10.2938 10.3938L9.75625 10.875L10.1562 11.7125L10.55 12.5437L10.2812 13.1C10.1313 13.4062 9.95625 13.8375 9.9 14.0625C9.84375 14.2875 9.7625 14.5 9.725 14.5375C9.6875 14.575 9.28125 14.7437 8.83125 14.9062L8 15.2063V16V16.7937L8.83125 17.0938C9.28125 17.2562 9.6875 17.425 9.725 17.4625C9.75625 17.5 9.85625 17.7438 9.93125 18C10.0125 18.2562 10.1875 18.6875 10.3188 18.95L10.5625 19.4313L10.1625 20.275L9.76875 21.1125L10.325 21.675L10.8875 22.2312L11.7188 21.8438L12.5438 21.45L13.1 21.7313C13.4062 21.8937 13.8625 22.0938 14.1125 22.1812L14.575 22.3438L14.8875 23.175L15.2 24H16H16.7937L17.0938 23.175C17.2563 22.7188 17.4187 22.3125 17.45 22.2687C17.4812 22.2312 17.6 22.175 17.7063 22.15C18.2688 22.0312 18.275 22.0562 17.5938 21.375L16.9688 20.75L16.4062 20.7875C14.0312 20.95 11.9375 19.45 11.3375 17.1562C11.1688 16.5062 11.1813 15.4312 11.3625 14.7875C11.85 13.075 13.075 11.85 14.7875 11.3625C15.425 11.1812 16.5 11.175 17.1562 11.3438C18.5188 11.6875 19.675 12.6187 20.2812 13.8438C20.6438 14.575 20.75 15.05 20.75 15.9375V16.6562L21.4062 17.3125C21.7625 17.6687 22.0688 17.95 22.0813 17.9313C22.0938 17.9187 22.15 17.7812 22.2 17.625L22.2937 17.3438L23.1438 17.0687L24 16.8V16V15.2L23.175 14.9375C22.7188 14.7937 22.3125 14.6438 22.275 14.6062C22.2375 14.5625 22.1438 14.3313 22.0688 14.0938C21.9938 13.85 21.8 13.4 21.6438 13.0875L21.3625 12.525L21.6125 12.025C21.75 11.7562 21.925 11.3812 22 11.2L22.1438 10.8687L21.5938 10.3125L21.0437 9.7625L20.2125 10.1562L19.375 10.5562L18.8875 10.3125C18.625 10.1812 18.2125 10.0125 17.9688 9.9375C17.7312 9.8625 17.4875 9.78125 17.4375 9.75625C17.3875 9.725 17.2188 9.31875 17.0688 8.85L16.8 8H16H15.2063L14.9062 8.825Z" fill="black"/>
<path d="M15.5313 12.7308C15.4625 12.7433 15.3688 12.7683 15.3188 12.787C15.2625 12.8058 15.5313 13.1183 16.075 13.6745C16.825 14.437 16.9375 14.5745 17.025 14.8745C17.2125 15.512 17.125 15.9308 16.7 16.3933C16.3375 16.7745 16.0125 16.9308 15.5688 16.937C14.95 16.937 14.8 16.8558 13.85 15.962C12.8938 15.062 12.925 15.0745 12.85 15.6558C12.7375 16.4745 13.125 17.5183 13.7875 18.162C14.6438 19.012 15.7938 19.3058 16.9125 18.9683L17.2188 18.8745L19.7188 21.3683C21.9188 23.562 22.25 23.8683 22.4563 23.9058C23.0188 24.012 23.5875 23.7558 23.8188 23.3058C23.9625 23.0183 23.975 22.5245 23.8438 22.1995C23.775 22.0433 22.975 21.1933 21.3625 19.5808L18.975 17.1933L19.0875 16.8308C19.3375 16.0433 19.2813 15.2933 18.9063 14.5058C18.5063 13.662 17.6 12.9433 16.7 12.7558C16.375 12.687 15.775 12.6745 15.5313 12.7308Z" fill="black"/>
</svg>
