<svg width="32" height="32" viewBox="0 0 32 32" fill="none" xmlns="http://www.w3.org/2000/svg">
<rect width="32" height="32" rx="4" fill="#F6FBFB"/>
<path d="M20.6279 10.5834C18.9075 7.90008 15.2069 7.12418 12.6425 9.12859C10.7272 10.6481 10.5 12.9434 10.5 15.2065C10.5 18.1484 10.5 21.058 10.5 24L13.7461 21.7693C13.7461 19.183 13.4864 16.4673 13.7786 13.9133C13.9084 12.8788 14.3629 11.6179 15.4341 11.23C16.7326 10.745 18.031 11.8119 18.2583 13.0727C18.5504 14.7539 17.0247 15.4974 16.1158 16.5966C15.142 17.7605 14.9472 19.3446 15.1744 20.7994C16.9274 19.5709 19.0049 18.6657 20.3683 16.9522C21.7966 15.0772 21.8615 12.5555 20.6279 10.5834C21.6342 12.1675 19.5567 8.93461 20.6279 10.5834ZM20.8227 15.7237C20.8552 15.6591 20.9526 15.4328 20.8227 15.7237C20.8227 15.7237 20.8552 15.6914 20.8227 15.7237Z" fill="url(#paint0_linear_343_37909)"/>
<defs>
<linearGradient id="paint0_linear_343_37909" x1="22.1126" y1="10.193" x2="7.26416" y2="22.0812" gradientUnits="userSpaceOnUse">
<stop stop-color="#5D5FE5"/>
<stop offset="1" stop-color="#5ECFF9"/>
</linearGradient>
</defs>
</svg>
