<svg width="48" height="48" viewBox="0 0 48 48" fill="none" xmlns="http://www.w3.org/2000/svg">
<path d="M44.6297 20.9272C44.4459 15.6915 42.3257 10.7955 38.6027 7.0725C34.7004 3.1695 29.5142 1.02075 24.0002 1.02075C12.8634 1.02075 3.76367 9.885 3.37142 20.9272C1.67192 21.6825 0.482422 23.3835 0.482422 25.3605V30.807C0.482422 33.4815 2.65817 35.658 5.33342 35.658C7.06442 35.658 8.47217 34.2503 8.47217 32.5193V23.6475C8.47217 22.0223 7.22567 20.697 5.64092 20.5395C6.22592 10.9193 14.2344 3.27075 24.0002 3.27075C28.9142 3.27075 33.5349 5.18625 37.0127 8.664C40.2062 11.8575 42.0752 16.02 42.3564 20.5402C40.7732 20.6992 39.5289 22.0238 39.5289 23.6475V32.5185C39.5289 34.1572 40.7949 35.4907 42.3984 35.6295V37.8712C42.3984 40.3957 40.3442 42.4492 37.8197 42.4492H34.4289C34.2624 41.9737 34.0014 41.5342 33.6354 41.1698C32.9942 40.5255 32.1392 40.1707 31.2287 40.1707H27.7337C27.2319 40.1707 26.7504 40.2772 26.3094 40.4827C25.1064 41.0355 24.3294 42.249 24.3294 43.5742C24.3294 44.4847 24.6842 45.3397 25.3269 45.9795C25.9697 46.6237 26.8247 46.9785 27.7337 46.9785H31.2287C32.6777 46.9785 33.9549 46.0417 34.4312 44.6992H37.8197C41.5854 44.6992 44.6484 41.6362 44.6484 37.8712V35.229C46.3374 34.4692 47.5179 32.7743 47.5179 30.8055V25.359C47.5179 23.3835 46.3284 21.6825 44.6297 20.9272ZM6.22142 23.6475V32.5185C6.22142 33.0083 5.82317 33.4072 5.33267 33.4072C3.89867 33.4072 2.73167 32.2402 2.73167 30.8062V25.3597C2.73167 23.925 3.89867 22.7587 5.33267 22.7587C5.82317 22.7587 6.22142 23.1578 6.22142 23.6475ZM32.3574 43.8158C32.2457 44.3452 31.7702 44.73 31.2279 44.73H27.7329C27.4254 44.73 27.1367 44.61 26.9162 44.3895C26.6987 44.1727 26.5787 43.8833 26.5787 43.5757C26.5787 43.1265 26.8419 42.7162 27.2544 42.5265C27.4014 42.4575 27.5627 42.4222 27.7329 42.4222H31.2279C31.5354 42.4222 31.8242 42.5415 32.0439 42.762C32.2614 42.9787 32.3814 43.2682 32.3814 43.5757C32.3822 43.6582 32.3732 43.7407 32.3574 43.8158ZM45.2679 30.8062C45.2679 32.2402 44.1009 33.4072 42.6669 33.4072C42.1772 33.4072 41.7782 33.009 41.7782 32.5185V23.6475C41.7782 23.1578 42.1764 22.7587 42.6669 22.7587C44.1009 22.7587 45.2679 23.9258 45.2679 25.3597V30.8062Z" fill="#4EA8B9"/>
<path d="M31.2857 31.194C33.9145 31.194 36.0527 29.055 36.0527 26.427V16.7138C36.0527 15.4433 35.5562 14.2463 34.6547 13.3448C33.7532 12.4433 32.557 11.9468 31.2857 11.9468H16.7162C14.0875 11.9468 11.9492 14.085 11.9492 16.7138V26.427C11.9492 29.0558 14.0875 31.194 16.7162 31.194H16.8055V33.711C16.8055 34.671 17.3777 35.523 18.2627 35.8823C18.5485 35.997 18.8455 36.054 19.1395 36.054C19.7522 36.054 20.3492 35.811 20.7865 35.3588L24.9737 31.194H31.2857ZM23.7175 29.271L19.186 33.7778C19.1657 33.7988 19.1507 33.8145 19.108 33.7958C19.0562 33.7748 19.0562 33.741 19.0562 33.711V30.069C19.0562 29.448 18.553 28.944 17.9312 28.944H16.717C15.3287 28.944 14.2 27.8145 14.2 26.427V16.7138C14.2 15.3255 15.3287 14.1968 16.717 14.1968H31.2865C31.957 14.1968 32.5877 14.4593 33.0647 14.9355C33.5417 15.4125 33.8035 16.044 33.8035 16.7138V26.427C33.8035 27.8153 32.674 28.944 31.2865 28.944H24.511C24.2132 28.944 23.9282 29.0618 23.7175 29.271Z" fill="#4EA8B9"/>
<path d="M26.4651 20.7784H25.5256L26.0517 16.6484C26.0849 16.3872 25.9465 16.1355 25.7166 16.0394C25.4865 15.9432 25.2251 16.0277 25.0836 16.2437L21.0968 22.3224C20.9824 22.4969 20.9683 22.725 21.0605 22.9139C21.1526 23.103 21.3355 23.2215 21.5349 23.2215H22.4744L21.9483 27.3515C21.9151 27.6129 22.0535 27.8646 22.2834 27.9606C22.3469 27.9872 22.4129 28 22.4782 28C22.6488 28 22.814 27.9126 22.9164 27.7565L26.9031 21.6776C27.0176 21.5031 27.0317 21.275 26.9396 21.086C26.8474 20.8971 26.6645 20.7784 26.4651 20.7784ZM23.3058 25.1713L23.6171 22.7273C23.6378 22.5637 23.5915 22.3987 23.4899 22.2744C23.3884 22.1502 23.2414 22.0789 23.087 22.0789H22.5628L24.6942 18.8289L24.3829 21.2728C24.3621 21.4362 24.4084 21.6014 24.5101 21.7257C24.6117 21.8499 24.7586 21.9213 24.9129 21.9213H25.4372L23.3058 25.1713Z" fill="#4EA8B9"/>
</svg>
