<svg width="600" height="600" viewBox="0 0 600 600" fill="none" xmlns="http://www.w3.org/2000/svg">
<rect width="600" height="600" rx="16" fill="#07B6D5" fill-opacity="0.05"/>
<path d="M294.367 149.099C205.752 151.916 179.415 215.217 173.379 249.511C181.243 236.799 206.026 208.908 242.515 208.908C285.039 208.908 317.412 256.37 337.166 271.185C361.164 289.184 409.387 312.95 472.694 293.682C523.175 278.318 546.586 224.728 551.707 199.305C527.29 232.501 490.253 252.441 444.436 228.935C412.886 212.748 389.292 146.082 294.367 149.099Z" fill="#07B6D5"/>
<path d="M168.987 299.716C80.3723 302.533 54.0347 365.835 47.999 400.128C55.8637 387.417 80.6466 359.525 117.135 359.525C159.659 359.525 192.033 406.988 211.786 421.803C235.784 439.801 284.007 463.567 347.314 444.299C397.795 428.936 421.206 375.345 426.327 349.922C401.91 383.119 364.873 403.058 319.056 379.552C287.506 363.366 263.912 296.699 168.987 299.716Z" fill="#07B6D5"/>
</svg>
