<svg width="44" height="44" viewBox="0 0 44 44" fill="none" xmlns="http://www.w3.org/2000/svg">
<path d="M0 4C0 1.79087 1.79086 0 4 0H40.0008C42.2099 0 44.0008 1.79086 44.0008 4V40.0003C44.0008 42.2094 42.2099 44.0003 40.0008 44.0003H4.00001C1.79087 44.0003 0 42.2094 0 40.0003V4Z" fill="white"/>
<path d="M0 4C0 1.79087 1.79086 0 4 0H40.0008C42.2099 0 44.0008 1.79086 44.0008 4V40.0003C44.0008 42.2094 42.2099 44.0003 40.0008 44.0003H4.00001C1.79087 44.0003 0 42.2094 0 40.0003V4Z" fill="#55B7BD" fill-opacity="0.08"/>
<path d="M19.1315 27.3279C19.1315 24.6693 17.3771 22.29 14.7401 21.39C11.896 20.4175 10 17.852 10 14.9762V11.3555C15.0561 11.3555 19.1424 15.2451 19.1424 20.0348L19.1315 27.3279Z" fill="#0074BC"/>
<path d="M28.4516 15.9586H33.9654C34.0089 15.9586 34.0198 15.8966 33.9654 15.8862L28.3535 15.1621L28.4516 15.9586Z" fill="#0074BC"/>
<path d="M28.3842 15.9065C25.2677 15.2962 22.0313 16.2789 19.8629 18.4927L19.1328 19.2376V24.2031V28.4755C19.1328 28.4755 19.1328 28.4755 19.1437 28.4755V33.9996C20.8436 33.9996 21.9442 32.2927 21.1596 30.8651L20.4295 29.5203C19.852 28.4445 20.1571 27.1306 21.1487 26.3651C23.5678 24.5134 25.2568 22.2479 25.6709 19.972C26.2593 16.7341 28.6239 15.9582 28.6239 15.9582L28.3842 15.9065Z" fill="url(#paint0_linear_1244_122)"/>
<path d="M19.1328 24.9796V17.821C19.1328 16.0727 20.0045 14.7176 21.3666 13.9003C23.3063 12.7314 25.8234 12.9072 27.6105 14.2727C28.1989 14.7176 28.6348 15.2762 28.6348 15.9589C23.3826 15.9589 19.1328 19.9934 19.1328 24.9796Z" fill="url(#paint1_linear_1244_122)"/>
<path d="M19.1315 24.2035C19.1315 21.5448 17.3771 19.1655 14.7401 18.2655C11.896 17.2931 10 14.7276 10 11.8517V10C15.0561 10 19.1424 13.8897 19.1424 18.6793L19.1315 24.2035Z" fill="url(#paint2_linear_1244_122)"/>
<path d="M19.1329 27.5762L17.6836 34.0003H19.1329V27.5762Z" fill="#0074BC"/>
<defs>
<linearGradient id="paint0_linear_1244_122" x1="25.2078" y1="16.4236" x2="18.401" y2="30.7636" gradientUnits="userSpaceOnUse">
<stop stop-color="#FFDD00"/>
<stop offset="1" stop-color="#EF4056"/>
</linearGradient>
<linearGradient id="paint1_linear_1244_122" x1="28.9494" y1="19.0546" x2="8.94344" y2="19.0546" gradientUnits="userSpaceOnUse">
<stop stop-color="#5BC4BF"/>
<stop offset="1" stop-color="#2A5CAA"/>
</linearGradient>
<linearGradient id="paint2_linear_1244_122" x1="9.98987" y1="17.1051" x2="25.0542" y2="17.1051" gradientUnits="userSpaceOnUse">
<stop stop-color="#5BC4BF"/>
<stop offset="1" stop-color="#2A5CAA"/>
</linearGradient>
</defs>
</svg>
