<svg width="18" height="18" viewBox="0 0 18 18" fill="none" xmlns="http://www.w3.org/2000/svg">
<path d="M7.30655 2.25H3.94345C3.00969 2.25 2.25 3.00969 2.25 3.94345V7.30655C2.25 8.24031 3.00969 9 3.94345 9H7.30655C8.24031 9 9 8.24031 9 7.30655V3.94345C9 3.00969 8.24031 2.25 7.30655 2.25ZM7.85593 7.30655C7.85593 7.60947 7.60947 7.85593 7.30655 7.85593H3.94345C3.64053 7.85593 3.39407 7.60947 3.39407 7.30655V3.94345C3.39407 3.64053 3.64053 3.39407 3.94345 3.39407H7.30655C7.60947 3.39407 7.85593 3.64053 7.85593 3.94345V7.30655Z" fill="url(#paint0_linear_3_11)"/>
<path d="M15.1589 2.25H11.8411C10.8948 2.25 10.125 3.01984 10.125 3.9661V7.2839C10.125 8.23016 10.8948 9 11.8411 9H15.1589C16.1052 9 16.875 8.23016 16.875 7.2839V3.9661C16.875 3.01984 16.1052 2.25 15.1589 2.25ZM15.7309 7.2839C15.7309 7.59932 15.4743 7.85593 15.1589 7.85593H11.8411C11.5257 7.85593 11.2691 7.59932 11.2691 7.2839V3.9661C11.2691 3.65068 11.5257 3.39407 11.8411 3.39407H15.1589C15.4743 3.39407 15.7309 3.65068 15.7309 3.9661V7.2839Z" fill="url(#paint1_linear_3_11)"/>
<path d="M7.30655 10.125H3.94345C3.00969 10.125 2.25 10.8847 2.25 11.8184V15.1816C2.25 16.1153 3.00969 16.875 3.94345 16.875H7.30655C8.24031 16.875 9 16.1153 9 15.1816V11.8184C9 10.8847 8.24031 10.125 7.30655 10.125ZM7.85593 15.1816C7.85593 15.4845 7.60947 15.7309 7.30655 15.7309H3.94345C3.64053 15.7309 3.39407 15.4845 3.39407 15.1816V11.8184C3.39407 11.5155 3.64053 11.2691 3.94345 11.2691H7.30655C7.60947 11.2691 7.85593 11.5155 7.85593 11.8184V15.1816Z" fill="url(#paint2_linear_3_11)"/>
<path d="M15.1589 10.125H11.8411C10.8948 10.125 10.125 10.8948 10.125 11.8411V15.1589C10.125 16.1052 10.8948 16.875 11.8411 16.875H15.1589C16.1052 16.875 16.875 16.1052 16.875 15.1589V11.8411C16.875 10.8948 16.1052 10.125 15.1589 10.125ZM15.7309 15.1589C15.7309 15.4743 15.4743 15.7309 15.1589 15.7309H11.8411C11.5257 15.7309 11.2691 15.4743 11.2691 15.1589V11.8411C11.2691 11.5257 11.5257 11.2691 11.8411 11.2691H15.1589C15.4743 11.2691 15.7309 11.5257 15.7309 11.8411V15.1589Z" fill="url(#paint3_linear_3_11)"/>
<defs>
<linearGradient id="paint0_linear_3_11" x1="5.42813" y1="1.49353" x2="8.71768" y2="21.7654" gradientUnits="userSpaceOnUse">
<stop stop-color="#5BC4BF"/>
<stop offset="1" stop-color="#2A5CAA"/>
</linearGradient>
<linearGradient id="paint1_linear_3_11" x1="13.3031" y1="1.49353" x2="16.5927" y2="21.7654" gradientUnits="userSpaceOnUse">
<stop stop-color="#5BC4BF"/>
<stop offset="1" stop-color="#2A5CAA"/>
</linearGradient>
<linearGradient id="paint2_linear_3_11" x1="5.42813" y1="9.36853" x2="8.71768" y2="29.6404" gradientUnits="userSpaceOnUse">
<stop stop-color="#5BC4BF"/>
<stop offset="1" stop-color="#2A5CAA"/>
</linearGradient>
<linearGradient id="paint3_linear_3_11" x1="13.3031" y1="9.36853" x2="16.5927" y2="29.6404" gradientUnits="userSpaceOnUse">
<stop stop-color="#5BC4BF"/>
<stop offset="1" stop-color="#2A5CAA"/>
</linearGradient>
</defs>
</svg>
