<svg width="18" height="18" viewBox="0 0 18 18" fill="none" xmlns="http://www.w3.org/2000/svg">
<path opacity="0.5" d="M9.49677 1.44554C9.4892 1.47525 9.4892 1.50639 9.49677 1.5361C9.54902 1.84338 9.54387 2.15769 9.48159 2.4631L4.83702 14.5445C4.67292 14.9732 4.68586 15.4496 4.873 15.8688C5.06014 16.288 5.40614 16.6157 5.8349 16.7798C6.26365 16.944 6.74004 16.931 7.15925 16.7439C7.57847 16.5567 7.90617 16.2107 8.07027 15.782L12.7148 3.69891C12.8835 3.43948 13.0891 3.20603 13.3251 3.00591C13.3473 2.98515 13.3674 2.96237 13.3853 2.93785V2.93054C13.3853 2.92322 13.3926 2.92322 13.3926 2.91535C13.513 2.60654 12.7368 2.01872 11.6669 1.60416C10.597 1.1896 9.62502 1.10635 9.50577 1.42304C9.50004 1.42913 9.49683 1.43717 9.49677 1.44554Z" fill="#081E2B"/>
<path d="M9.36227 1.34047C9.3547 1.37018 9.3547 1.40132 9.36227 1.43103C9.41456 1.73831 9.40941 2.05262 9.34708 2.35803L4.70421 14.4388C4.54011 14.8676 4.55305 15.344 4.74019 15.7632C4.92732 16.1824 5.27333 16.5101 5.70208 16.6742C6.13084 16.8383 6.60722 16.8254 7.02644 16.6382C7.44565 16.4511 7.77336 16.1051 7.93746 15.6763L12.5803 3.59384C12.749 3.33423 12.9546 3.10059 13.1906 2.90028C13.2128 2.87952 13.2329 2.85673 13.2508 2.83222V2.8249C13.2508 2.81759 13.2581 2.81759 13.2581 2.80972C13.3791 2.5009 12.6006 1.91253 11.5318 1.49853C10.4631 1.08453 9.4894 1.00128 9.36902 1.3174C9.36955 1.32146 9.36917 1.32559 9.3679 1.32948C9.36664 1.33337 9.36452 1.33693 9.36171 1.3399L9.36227 1.34047Z" fill="url(#paint0_linear_3_9)"/>
<path d="M10.8233 6.8063L7.46966 15.5166C7.34791 15.821 7.11119 16.0652 6.81075 16.1964C6.5103 16.3275 6.17028 16.3351 5.86428 16.2175C5.55641 16.0984 5.3067 15.8646 5.16761 15.5652C5.02852 15.2658 5.01088 14.9242 5.11841 14.6121L7.25872 9.04336C7.46417 8.74125 7.73458 8.4889 8.05016 8.3048C8.57778 7.99599 9.00641 8.06349 9.58747 7.80755C10.0557 7.54878 10.4746 7.20946 10.825 6.80518L10.8233 6.8063Z" fill="url(#paint1_linear_3_9)"/>
<path d="M12.45 2.55758C12.517 2.3832 12.036 2.03558 11.3762 1.78076C10.7164 1.52595 10.1252 1.46239 10.0605 1.63508C9.99585 1.80776 10.4745 2.15708 11.1344 2.41189C11.7942 2.6667 12.3837 2.73195 12.45 2.55758Z" fill="#333333"/>
<path opacity="0.3" d="M9.32994 1.42976C9.38181 1.73613 9.37666 2.04945 9.31475 2.35395L4.70281 14.3999C4.54378 14.825 4.55918 15.2958 4.74566 15.7096C4.93215 16.1235 5.2746 16.4469 5.69844 16.6094C5.84621 16.67 6.00304 16.7055 6.1625 16.7146C5.86728 16.4889 5.65208 16.1747 5.54843 15.8179C5.44478 15.4611 5.45812 15.0804 5.5865 14.7318L10.109 2.92489C9.70668 2.51473 9.43566 1.99403 9.3305 1.4292L9.32994 1.42976Z" fill="white"/>
<g opacity="0.5">
<path d="M7.84789 9.33567C7.92245 9.33567 7.98289 9.27523 7.98289 9.20067C7.98289 9.12612 7.92245 9.06567 7.84789 9.06567C7.77333 9.06567 7.71289 9.12612 7.71289 9.20067C7.71289 9.27523 7.77333 9.33567 7.84789 9.33567Z" fill="white"/>
<path d="M8.72538 10.3719C8.8369 10.3719 8.92731 10.2815 8.92731 10.17C8.92731 10.0584 8.8369 9.96802 8.72538 9.96802C8.61385 9.96802 8.52344 10.0584 8.52344 10.17C8.52344 10.2815 8.61385 10.3719 8.72538 10.3719Z" fill="white"/>
<path d="M7.38389 11.7094C7.59483 11.7094 7.76583 11.5384 7.76583 11.3275C7.76583 11.1166 7.59483 10.9456 7.38389 10.9456C7.17295 10.9456 7.00195 11.1166 7.00195 11.3275C7.00195 11.5384 7.17295 11.7094 7.38389 11.7094Z" fill="white"/>
<path d="M6.7703 12.2359C6.88182 12.2359 6.97223 12.1455 6.97223 12.034C6.97223 11.9224 6.88182 11.832 6.7703 11.832C6.65877 11.832 6.56836 11.9224 6.56836 12.034C6.56836 12.1455 6.65877 12.2359 6.7703 12.2359Z" fill="white"/>
<path d="M7.57055 13.6721C7.64511 13.6721 7.70555 13.6117 7.70555 13.5371C7.70555 13.4625 7.64511 13.4021 7.57055 13.4021C7.49599 13.4021 7.43555 13.4625 7.43555 13.5371C7.43555 13.6117 7.49599 13.6721 7.57055 13.6721Z" fill="white"/>
</g>
<defs>
<linearGradient id="paint0_linear_3_9" x1="6.7021" y1="8.22586" x2="10.6497" y2="8.77319" gradientUnits="userSpaceOnUse">
<stop stop-color="#919191"/>
<stop offset="1" stop-color="white"/>
</linearGradient>
<linearGradient id="paint1_linear_3_9" x1="6.6537" y1="10.8347" x2="9.07132" y2="11.2359" gradientUnits="userSpaceOnUse">
<stop stop-color="#990000"/>
<stop offset="1" stop-color="#E80000"/>
</linearGradient>
</defs>
</svg>
